<?xml version="1.0" encoding="utf-8"?>
<!-- Generator: Adobe Illustrator 22.0.1, SVG Export Plug-In . SVG Version: 6.00 Build 0)  -->
<svg version="1.1" id="Layer_1" xmlns="http://www.w3.org/2000/svg" xmlns:xlink="http://www.w3.org/1999/xlink" x="0px" y="0px"
	 viewBox="0 0 512 512" style="enable-background:new 0 0 512 512;" xml:space="preserve">
<style type="text/css">
	.st0{fill-rule:evenodd;clip-rule:evenodd;fill:#2C2557;}
</style>
<g>
	<g>
		<g>
			<g id="Layer_1_00000183952724522712955060000013383403126417913248_">
			</g>
		</g>
	</g>
</g>
<path class="st0" d="M46.8,80.8h59.4V35.7c0-10,8-18,18-18l0,0c10,0,18.2,8,18.2,18v45.2h227.1V35.7c0-10,8.2-18,18.2-18l0,0
	c10,0,18.2,8,18.2,18v45.2H465l0,0h0.8l0,0h0.7l0,0h0.8l0,0h0.8l0,0l0.5,0.2l0,0h0.7l0,0l0.7,0.2l0,0h0.8l0,0l0.5,0.2l0,0h0.8l0,0
	l0.7,0.3l0,0l0.5,0.2l0,0l0.7,0.2l0,0l0.8,0.2l0,0l0.5,0.2l0,0l0.7,0.3l0,0l0.5,0.2l0,0l0.7,0.2l0,0l0.5,0.2l0,0l0.8,0.3l0,0
	l0.5,0.5l0,0l0.5,0.2l0,0l0.8,0.5l0,0l0.5,0.2l0,0l0.5,0.5l0,0l0.5,0.3l0,0l0.5,0.5l0,0l0.5,0.5l0,0l0.8,0.2l0,0l0.5,0.5l0,0
	l0.3,0.5h0.2l0.3,0.5l0,0l0.5,0.5l0,0l0.5,0.5l0,0l0.5,0.5l0,0l0.5,0.5l0,0l0.3,0.5l0,0l0.5,0.5l0,0l0.5,0.5l0,0l0.2,0.5l0,0
	l0.5,0.7l0,0l0.2,0.5l0,0l0.3,0.5l0,0l0.5,0.8l0,0L490,96l0,0l0.3,0.5v0.2l0.2,0.5l0,0l0.5,0.5l0,0l0.3,0.8l0,0l0.2,0.7l0,0v0.5l0,0
	l0.2,0.7l0,0l0.3,0.5l0,0l0.2,0.8l0,0v0.7l0,0l0.3,0.5l0,0l0.2,0.8l0,0v0.8l0,0v0.8l0,0l0.3,0.7l0,0v0.5l0,0v0.8l0,0v0.7l0,0v0.8
	l0,0v44.4l0,0v302.9c0,15.5-12.5,28-27.9,28H46.8c-15.5,0-27.9-12.5-27.9-28V153.2v-44.4l0,0V108l0,0v-0.7l0,0v-0.8l0,0l0.2-0.5l0,0
	v-0.7l0,0v-0.8l0,0l0.3-0.8l0,0V103l0,0l0.2-0.5l0,0l0.3-0.7l0,0V101l0,0l0.2-0.5l0,0l0.3-0.7l0,0l0.2-0.5l0,0l0.3-0.7l0,0l0.2-0.8
	l0,0l0.2-0.5l0,0l0.3-0.5v-0.2l0.2-0.5l0,0l0.5-0.5l0,0l0.3-0.8l0,0l0.2-0.5l0,0l0.5-0.5l0,0l0.2-0.7l0,0l0.5-0.5l0,0l0.3-0.5l0,0
	l0.5-0.5l0,0l0.5-0.5l0,0l0.2-0.5l0,0l0.5-0.5l0,0l0.5-0.5l0,0l0.5-0.5l0,0l0.5-0.5l0,0l0.5-0.5l0,0l0.5-0.5l0,0l0.5-0.2l0,0
	l0.5-0.5l0,0l0.5-0.5l0,0l0.5-0.3l0,0l0.7-0.5l0,0l0.5-0.2l0,0l0.5-0.5l0,0l0.5-0.2l0,0l0.7-0.5l0,0l0.5-0.3l0,0l0.8-0.2l0,0
	l0.5-0.2l0,0l0.7-0.2l0,0l0.5-0.3l0,0l0.7-0.2l0,0l0.5-0.2l0,0l0.8-0.2l0,0l0.7-0.2l0,0l0.5-0.3l0,0h0.7l0,0l0.7-0.2l0,0h0.5l0,0
	l0.8-0.2l0,0h0.8l0,0l0.7-0.2l0,0h0.8l0,0h0.5l0,0H46l0,0H46.8L46.8,80.8z M56.5,153.2h399c0,1.2,0,2.2,0,3.5v251.8
	c0,13-10.5,23.5-23.5,23.5H79.7c-13,0-23.5-10.5-23.5-23.5V156.7C56.3,155.4,56.3,154.4,56.5,153.2L56.5,153.2z M99.7,200.1h65.9
	v62.6H99.7V200.1z M346.5,302.2h65.9v62.6h-65.9V302.2z M223,302.2h65.9v62.6H223V302.2z M99.7,302.2h65.9v62.6H99.7V302.2z
	 M346.5,200.1h65.9v62.6h-65.9V200.1z M223,200.1h65.9v62.6H223V200.1z"/>
</svg>
