<?xml version="1.0" encoding="utf-8"?>
<!-- Generator: Adobe Illustrator 22.0.1, SVG Export Plug-In . SVG Version: 6.00 Build 0)  -->
<svg version="1.1" id="Layer_1" xmlns="http://www.w3.org/2000/svg" xmlns:xlink="http://www.w3.org/1999/xlink" x="0px" y="0px"
	 viewBox="0 0 512 512" style="enable-background:new 0 0 512 512;" xml:space="preserve">
<style type="text/css">
	.st0{fill:#2C2557;}
</style>
<g>
	<g>
		<g>
			<g id="_x36_99-Books_x2C__Bookshelf_x2C__Library">
				<g>
					<path class="st0" d="M421.9,307.3h-15.9c34-30.2,34-83.1,0-113.4h15.9c5.3,0,9.8-4.5,9.8-9.8v-37.8c0-5.3-4.5-9.8-9.8-9.8h-9.8
						V98.7h9.8c5.3,0,9.8-4.5,9.8-9.8V51.1c0-5.3-4.5-9.8-9.8-9.8H147.6c-41.6,0-75.6,34-75.6,75.6c0,22.7,9.8,43.1,25.7,56.7H81.9
						c-5.3,0-9.8,4.5-9.8,9.8v37.8c0,5.3,4.5,9.8,9.8,9.8h9.8v37.8h-9.8c-5.3,0-9.8,4.5-9.8,9.8v37.8c0,5.3,4.5,9.8,9.8,9.8h15.9
						c-15.9,13.6-25.7,34-25.7,56.7c0,41.6,34,75.6,75.6,75.6h274.3c5.3,0,9.8-4.5,9.8-9.8v-37.8c0-5.3-4.5-9.8-9.8-9.8h-9.8v-37.8
						h9.8c5.3,0,9.8-4.5,9.8-9.8v-37.8C431,311.8,426.5,307.3,421.9,307.3z M393.2,109.3H242.1c-5.3,0-9.8,4.5-9.8,9.8
						c0,5.3,4.5,9.8,9.8,9.8h151.2v8.3H147.6c-10.6,0-18.9-8.3-18.9-18.9c0-10.6,8.3-18.9,18.9-18.9h245.6V109.3z M90.9,118.3
						c0-31,25.7-56.7,56.7-56.7h264.5v18.9H147.6c-21.2,0-37.8,16.6-37.8,37.8c0,21.2,16.6,37.8,37.8,37.8h264.5V175
						c-6.8,0-257,0-264.5,0C116.6,175,90.9,149.3,90.9,118.3z M109.8,260.4H261c5.3,0,9.8-4.5,9.8-9.8c0-5.3-4.5-9.8-9.8-9.8H109.8
						v-9.8h245.6c10.6,0,18.9,8.3,18.9,18.9c0,10.6-8.3,18.9-18.9,18.9H109.8V260.4z M90.9,307.3v-18.9h264.5
						c21.2,0,37.8-16.6,37.8-37.8c0-21.2-16.6-37.8-37.8-37.8H90.9v-18.9c6.8,0,257,0,264.5,0c31,0,56.7,25.7,56.7,56.7
						c0,31-25.7,56.7-56.7,56.7C347.9,307.3,97.7,307.3,90.9,307.3z M393.2,373.8H242.1c-5.3,0-9.8,4.5-9.8,9.8
						c0,5.3,4.5,9.8,9.8,9.8h151.2v8.3H147.6c-10.6,0-18.9-8.3-18.9-18.9c0-10.6,8.3-18.9,18.9-18.9h245.6V373.8z M412.1,345.1
						H147.6c-21.2,0-37.8,16.6-37.8,37.8c0,21.2,16.6,37.8,37.8,37.8h264.5v18.9H147.6c-31,0-56.7-25.7-56.7-56.7
						c0-31,25.7-56.7,56.7-56.7c7.6,0,257.7,0,264.5,0V345.1z"/>
					<path class="st0" d="M214.1,373c5.4,0,9.8,4.4,9.8,9.8c0,5.4-4.4,9.8-9.8,9.8c-5.4,0-9.8-4.4-9.8-9.8
						C204.3,377.4,208.7,373,214.1,373z"/>
					<path class="st0" d="M289.7,240.8c5.4,0,9.8,4.4,9.8,9.8c0,5.4-4.4,9.8-9.8,9.8c-5.4,0-9.8-4.4-9.8-9.8
						C279.9,245.2,284.3,240.8,289.7,240.8z"/>
					<path class="st0" d="M317.7,240.8c5.4,0,9.8,4.4,9.8,9.8c0,5.4-4.4,9.8-9.8,9.8c-5.4,0-9.8-4.4-9.8-9.8
						C307.8,245.2,312.2,240.8,317.7,240.8z"/>
					<path class="st0" d="M459.7,193.9c5.4,0,9.8,4.4,9.8,9.8c0,5.4-4.4,9.8-9.8,9.8c-5.4,0-9.8-4.4-9.8-9.8
						C449.9,198.3,454.3,193.9,459.7,193.9z"/>
					<path class="st0" d="M459.7,382.9c5.4,0,9.8,4.4,9.8,9.8c0,5.4-4.4,9.8-9.8,9.8c-5.4,0-9.8-4.4-9.8-9.8
						C449.9,387.2,454.3,382.9,459.7,382.9z"/>
					<path class="st0" d="M53.1,316.3c5.4,0,9.8,4.4,9.8,9.8c0,5.4-4.4,9.8-9.8,9.8c-5.4,0-9.8-4.4-9.8-9.8
						C43.3,320.7,47.7,316.3,53.1,316.3z"/>
					<path class="st0" d="M81.9,32.9c5.4,0,9.8,4.4,9.8,9.8c0,5.4-4.4,9.8-9.8,9.8c-5.4,0-9.8-4.4-9.8-9.8
						C72,37.3,76.4,32.9,81.9,32.9z"/>
					<path class="st0" d="M53.1,156.1c5.4,0,9.8,4.4,9.8,9.8c0,5.4-4.4,9.8-9.8,9.8c-5.4,0-9.8-4.4-9.8-9.8
						C43.3,160.5,47.7,156.1,53.1,156.1z"/>
					<path class="st0" d="M214.1,108.5c5.4,0,9.8,4.4,9.8,9.8c0,5.4-4.4,9.8-9.8,9.8c-5.4,0-9.8-4.4-9.8-9.8
						C204.3,112.9,208.7,108.5,214.1,108.5z"/>
					<path class="st0" d="M63,420.6c-15.9,0-28.7,12.8-28.7,28.7s12.8,28.7,28.7,28.7s28.7-12.9,28.7-28.7S78.1,420.6,63,420.6z
						 M63,458.4c-5.3,0-9.8-4.5-9.8-9.8c0-5.3,4.5-9.8,9.8-9.8c5.3,0,9.8,4.5,9.8,9.8C72,453.9,67.5,458.4,63,458.4z"/>
					<path class="st0" d="M454.4,260.4c-12.8,0-23.4,10.6-23.4,23.4c0,12.8,10.6,23.4,23.4,23.4c12.9,0,23.4-10.6,23.4-23.4
						C477.9,271,467.3,260.4,454.4,260.4z M454.4,288.4c-2.3,0-4.5-2.3-4.5-4.5c0-2.3,2.3-4.5,4.5-4.5c2.3,0,4.5,2.3,4.5,4.5
						C459,286.1,457.5,288.4,454.4,288.4z"/>
					<path class="st0" d="M449.9,137.2c10.6,0,18.9-8.3,18.9-18.9c0-10.6-8.3-18.9-18.9-18.9c-10.6,0-18.9,8.3-18.9,18.9
						C431,128.9,439.3,137.2,449.9,137.2z"/>
				</g>
			</g>
			<g id="Layer_1_00000170998935083283897850000003380967384652851120_">
			</g>
		</g>
	</g>
</g>
</svg>
