<?xml version="1.0" encoding="utf-8"?>
<!-- Generator: Adobe Illustrator 22.0.1, SVG Export Plug-In . SVG Version: 6.00 Build 0)  -->
<svg version="1.1" id="Layer_1" xmlns="http://www.w3.org/2000/svg" xmlns:xlink="http://www.w3.org/1999/xlink" x="0px" y="0px"
	 viewBox="0 0 512 512" style="enable-background:new 0 0 512 512;" xml:space="preserve">
<style type="text/css">
	.st0{fill-rule:evenodd;clip-rule:evenodd;fill:#2C2557;}
</style>
<g>
	<g>
		<g>
			<g id="Layer_1_00000183952724522712955060000013383403126417913248_">
			</g>
		</g>
	</g>
</g>
<g>
	<g>
		<g>
			<g id="_x32_17_x2C__goals_x2C__report_x2C__analytics_x2C__target_x2C__achievement">
				<g id="XMLID_00000035522534615764266350000007580271983615574684_">
					<path id="XMLID_00000009552352359119991110000008438067548757888659_" class="st0" d="M374.1,193.1c14.9,0,29,4.2,41.5,10.8
						l16.6-24.1c-9.1-5-19.9-9.1-30.7-12.4l0,0l0,0l0,0l0,0l0,0l0,0l0,0l0,0l0,0l0,0l0,0l0,0l-2.5-0.8l0,0c-0.8,0-1.7-0.8-2.5-0.8
						l0,0l0,0h-0.8l0,0l0,0h-0.8l0,0l0,0l0,0l0,0l0,0l0,0l0,0h-1.7l0,0l0,0l0,0l0,0l0,0l0,0l0,0l0,0l0,0l0,0l0,0l0,0l0,0l0,0l0,0
						l0,0l0,0l0,0l0,0l0,0l0,0l0,0l0,0l0,0l0,0l0,0l0,0l0,0l0,0l0,0l0,0l0,0l0,0l0,0l0,0l0,0l0,0l0,0l0,0l0,0l0,0l0,0l0,0l0,0l0,0
						l0,0l0,0l0,0l0,0l0,0l0,0l0,0l0,0l0,0l0,0l0,0l0,0l0,0l0,0l0,0l0,0l0,0l0,0l0,0l0,0l0,0l0,0l0,0l0,0l0,0l0,0l0,0l0,0l0,0l0,0
						l0,0l0,0l0,0l0,0l0,0l0,0l0,0l0,0l0,0l0,0l0,0l0,0h-0.8l0,0l0,0l0,0l0,0l0,0l0,0l0,0l0,0l0,0l0,0l0,0l0,0l0,0l0,0l0,0l0,0l0,0
						l0,0l0,0l0,0l0,0l0,0l0,0l0,0l0,0l0,0l0,0l0,0l0,0l0,0l0,0l0,0l0,0l0,0l0,0l0,0l0,0l0,0l0,0l0,0l0,0l0,0l0,0l0,0l0,0l0,0l0,0
						l0,0l0,0l0,0l0,0l0,0l0,0l0,0l0,0l0,0l0,0l0,0l0,0l0,0l0,0l0,0l0,0l0,0l0,0l0,0l0,0l0,0l0,0l0,0l0,0l0,0l0,0l0,0l0,0l0,0l0,0
						l0,0l0,0l0,0l0,0l0,0l0,0l0,0l0,0l0,0l0,0l0,0l0,0l0,0l0,0l0,0c-32.3,0-62.2,13.3-82.9,34.8c-21.6,21.6-34.8,50.6-34.8,82.9
						c0,32.3,13.3,62.2,34.8,82.9c21.6,20.7,50.6,34.8,82.9,34.8l0,0l0,0l0,0l0,0l0,0l0,0l0,0l0,0l0,0l0,0l0,0l0,0l0,0l0,0l0,0l0,0
						l0,0l0,0l0,0l0,0l0,0l0,0l0,0l0,0l0,0l0,0l0,0l0,0l0,0l0,0l0,0l0,0l0,0l0,0l0,0l0,0l0,0l0,0l0,0l0,0l0,0l0,0l0,0l0,0l0,0l0,0
						l0,0l0,0l0,0l0,0l0,0l0,0l0,0l0,0l0,0l0,0l0,0l0,0l0,0l0,0l0,0l0,0l0,0l0,0l0,0l0,0l0,0l0,0l0,0l0,0l0,0l0,0l0,0l0,0l0,0l0,0
						l0,0l0,0l0,0l0,0l0,0l0,0l0,0l0,0l0,0l0,0l0,0l0,0l0,0l0,0l0,0h0.8l0,0l0,0l0,0l0,0l0,0l0,0l0,0l0,0l0,0l0,0l0,0l0,0l0,0l0,0
						l0,0h0.8l0,0l0,0l0,0l0,0l0,0l0,0l0,0l0,0l0,0l0,0l0,0l0,0l0,0l0,0l0,0l0,0l0,0l0,0l0,0l0,0l0,0l0,0l0,0l0,0l0,0l0,0l0,0l0,0
						l0,0l0,0l0,0l0,0l0,0l0,0l0,0l0,0l0,0l0,0l0,0l0,0l0,0l0,0l0,0l0,0l0,0l0,0l0,0l0,0l0,0l0,0l0,0l0,0l0,0l0,0l0,0l0,0l0,0l0,0
						l0,0l0,0l0,0l0,0l0,0l0,0l0,0l0,0l0,0l0,0l0,0l0,0l0,0l0,0l0,0l0,0l0,0l0,0h2.5l0,0l0,0l0,0l2.5-0.8l0,0l0,0
						c23.2-4.1,44.8-15.8,60.5-32.4c21.6-21.6,34.8-50.6,34.8-82.9c0-32.3-13.3-62.2-34.8-82.9c-2.5-2.5-5-5-8.3-7.5l-16.6,24.1
						c1.7,0.8,2.5,2.5,4.1,4.1c15.8,15.8,25.7,38.2,25.7,63c0,24.9-10,46.5-25.7,63c-15.8,15.8-38.2,25.7-63,25.7
						c-24.9,0-46.4-10-63-25.7c-15.8-15.8-25.7-38.2-25.7-63c0-24.9,10-46.4,25.7-63C326.8,203.1,349.2,193.1,374.1,193.1
						 M374.1,223.8c8.3,0,16.6,1.7,24.1,5l14.1-19.9c-11.6-5.8-24.1-9.1-38.2-9.1c-22.4,0-43.1,9.1-58.1,24.1
						c-14.9,14.9-24.1,35.7-24.1,58.1c0,22.4,9.1,43.1,24.1,58.1c14.9,14.9,35.7,24.1,58.1,24.1c22.4,0,43.1-9.1,58.1-24.1
						c14.9-14.9,24.1-35.7,24.1-58.1c0-22.4-9.1-43.1-24.1-58.1c-0.8-0.8-2.5-1.7-3.3-3.3l-14.1,20.7c10.8,10.8,16.6,24.9,16.6,40.6
						c0,15.8-6.6,30.7-16.6,40.6l0,0c-10.8,10-24.9,16.6-40.6,16.6c-15.8,0-30.7-6.6-40.6-16.6c-10.8-10.8-16.6-24.9-16.6-40.6
						c0-15.8,6.6-30.7,16.6-40.6C343.4,230.5,357.5,223.8,374.1,223.8z M375.7,261.2c-0.8,0-0.8,0-1.7,0c-5.8,0-10.8,2.5-14.9,5.8
						l0,0c-4.1,4.1-5.8,9.1-5.8,14.9c0,5.8,2.5,10.8,5.8,14.9c4.1,4.1,9.1,5.8,14.9,5.8c5.8,0,10.8-2.5,14.9-5.8
						c4.1-4.2,5.8-9.1,5.8-14.9c0-3.3-0.8-6.6-1.7-9.1l-10.8,14.9c-1.7,2.5-4.1,4.1-6.6,4.1c-2.5,0.8-5.8,0-7.5-1.7
						c-2.5-1.7-4.1-4.1-4.1-6.6c-0.8-2.5,0-5,1.7-7.5L375.7,261.2z M374.1,253.7c2.5,0,4.1,0,6.6,0.8l13.3-19.9
						c-5.8-2.5-12.4-4.2-19.9-4.2c-14.1,0-26.5,5.8-35.7,14.9c-9.1,9.1-14.9,21.6-14.9,35.7c0,14.1,5.8,26.5,14.9,35.7
						c9.1,9.1,21.6,14.9,35.7,14.9c14.1,0,26.5-5.8,35.7-14.9l0,0c9.1-9.1,14.9-21.6,14.9-35.7c0-13.3-5-25.7-14.1-34.8l-13.3,19.9
						c3.3,4.1,5,10,5,15.8c0,7.5-3.3,14.9-8.3,19.9c-5,5-12.4,8.3-19.9,8.3c-7.5,0-14.9-3.3-19.9-8.3c-5-5-8.3-12.4-8.3-19.9
						c0-7.5,3.3-14.9,8.3-19.9l0,0C359.1,257,365.8,253.7,374.1,253.7z M302.7,63.8L302.7,63.8V43.9h-34c-1.7,0-3.3-1.7-3.3-3.3
						c0-6.6-2.5-12.4-7.5-17.4c-4.1-4.1-10.8-7.5-17.4-7.5c-6.6,0-12.4,2.5-17.4,7.5c-4.1,4.1-7.5,10-7.5,16.6l0,0
						c0,1.7-1.7,3.3-3.3,3.3h-34v19.1l0,0V77l0,0V92h123.6C302.7,66.2,302.7,101.9,302.7,63.8z M29,206.4V374l16.6,26.5L62.2,374
						v-24.9H34.8c-1.7,0-3.3-1.7-3.3-3.3c0-1.7,1.7-3.3,3.3-3.3h27.4v-136H48.9v98.7c0,1.7-1.7,3.3-3.3,3.3c-1.7,0-3.3-1.7-3.3-3.3
						v-98.7H29L29,206.4z M29,194v5.8h16.6l0,0l0,0h16.6V194H29z M29,174.9v12.4h34v-12.4c0-3.3-1.7-6.6-3.3-8.3
						c-2.5-2.5-5-3.3-8.3-3.3h-9.1c-3.3,0-6.6,1.7-8.3,3.3C30.7,168.3,29,171.6,29,174.9z M172.5,75.4v-8.3H95.4
						c-3.3,0-5.8,1.7-8.3,3.3c-2.5,2.5-3.3,5-3.3,8.3v365.8c0,6.6,5,11.6,11.6,11.6h292c3.3,0,5.8-0.8,8.3-3.3l0,0
						c2.5-2.5,3.3-5,3.3-8.3v-40.6c-1.7,0-3.3,0.8-5,0.8v25.7c0,5-1.7,9.1-5,12.4c-3.3,3.3-7.5,5-12.4,5H106.2c-5,0-9.1-1.7-12.4-5
						c-3.3-3.3-5-7.5-5-12.4V92.8c0-5,1.7-9.1,5-12.4c3.3-3.3,7.5-5,12.4-5H172.5z M393.1,158.3c1.7,0,3.3,0.8,5,0.8V78.7
						c0-3.3-1.7-5.8-3.3-8.3c-2.5-2.5-5-3.3-8.3-3.3h-77.1v8.3h66.4c5,0,9.1,1.7,12.4,5c3.3,3.3,5,7.5,5,12.4V158.3L393.1,158.3z
						 M248,45.5c-1.7-1.7-4.1-2.5-6.6-2.5c-2.5,0-5,0.8-6.6,2.5l0,0c-1.7,1.7-2.5,4.2-2.5,6.6c0,2.5,0.8,5,2.5,6.6
						c1.7,1.7,4.1,2.5,6.6,2.5c2.5,0,5-0.8,6.6-2.5l0,0c1.7-1.7,2.5-4.1,2.5-6.6C251.3,49.7,249.6,47.2,248,45.5z M241.4,35.6
						c5,0,9.1,1.7,11.6,5c3.3,3.3,5,7.5,5,11.6c0,5-1.7,9.1-5,11.6l0,0c-3.3,3.3-7.5,5-11.6,5c-5,0-9.1-1.7-11.6-5
						c-3.3-3.3-5-7.5-5-11.6c0-5,1.7-9.1,5-11.6l0,0C232.2,37.2,236.4,35.6,241.4,35.6z M161.7,151.7h-29.9v29.9h29.9v-14.1
						l-12.4,7.5c-1.7,0.8-4.1,0-4.1-1.7l-5-10.8c-0.8-1.7,0-4.1,1.7-4.1c1.7-0.8,4.1,0,4.1,1.7l3.3,7.5l12.4-6.6V151.7L161.7,151.7z
						 M128.6,145h37.3c1.7,0,3.3,1.7,3.3,3.3v8.3l8.3-5c1.7-0.8,4.1,0,5,1.7c0.8,1.7,0,4.1-1.7,5l-11.6,6.6v19.9
						c0,1.7-1.7,3.3-3.3,3.3h-37.3c-1.7,0-3.3-1.7-3.3-3.3v-37.3C125.2,145.9,126.9,145,128.6,145z M161.7,238.8h-29.9v29.9h29.9
						v-14.1l-12.4,7.5c-1.7,0.8-4.1,0-4.1-1.7l-5-10.8c-0.8-1.7,0-4.1,1.7-4.1c1.7-0.8,4.1,0,4.1,1.7l3.3,7.5l12.4-6.6V238.8
						L161.7,238.8z M128.6,232.1h37.3c1.7,0,3.3,1.7,3.3,3.3v8.3l8.3-5c1.7-0.8,4.1,0,5,1.7c0.8,1.7,0,4.1-1.7,5l-11.6,5.8v20.7
						c0,1.7-1.7,3.3-3.3,3.3h-37.3c-1.7,0-3.3-1.7-3.3-3.3v-37.3C125.2,233,126.9,232.1,128.6,232.1z M161.7,325.9h-29.9v29.9h29.9
						V325.9z M128.6,319.2h37.3c1.7,0,3.3,1.7,3.3,3.3V359c0,1.7-1.7,3.3-3.3,3.3h-37.3c-1.7,0-3.3-1.7-3.3-3.3v-37.3
						C125.2,320,126.9,319.2,128.6,319.2z M374.1,418.7c1.7,0,3.3,1.7,3.3,3.3c0,1.7-1.7,3.3-3.3,3.3c-39.8,0-76.3-15.8-102-42.3
						c-25.7-25.7-42.3-62.2-42.3-102c0-1.7,1.7-3.3,3.3-3.3c1.7,0,3.3,1.7,3.3,3.3c0,38.2,15.8,72.2,40.6,97
						C301.1,403.8,335.9,418.7,374.1,418.7z M456.2,125.1c-0.8-1.7,0.8-4.2,2.5-4.2c1.7-0.8,4.1,0.8,4.1,2.5l5.8,21.6h21.6
						c1.7,0,3.3,1.7,3.3,3.3c0,1.7-1.7,3.3-3.3,3.3h-22.4l-5,7.5h17.4c1.7,0,3.3,1.7,3.3,3.3c0,1.7-1.7,3.3-3.3,3.3h-22.4
						l-81.3,117.8c-0.8,1.7-3.3,1.7-5,0.8c-1.7-0.8-1.7-3.3-0.8-5l82.1-117.8l-5.8-22.4c-0.8-1.7,0.8-4.1,2.5-4.1
						c1.7-0.8,4.1,0.8,4.1,2.5l4.1,16.6l4.1-6.6L456.2,125.1z M70.5,53c-1.7,0-3.3-1.7-3.3-3.3c0-1.7,1.7-3.3,3.3-3.3h73
						c1.7,0,3.3,1.7,3.3,3.3c0,1.7-1.7,3.3-3.3,3.3H70.5z M75.5,479.3c-1.7,0-3.3-1.7-3.3-3.3c0-1.7,1.7-3.3,3.3-3.3H277
						c1.7,0,3.3,1.7,3.3,3.3c0,1.7-1.7,3.3-3.3,3.3H75.5z M193.2,493.4c-1.7,0-3.3-1.7-3.3-3.3c0-1.7,1.7-3.3,3.3-3.3h139.3
						c1.7,0,3.3,1.7,3.3,3.3c0,1.7-1.7,3.3-3.3,3.3H193.2z M347.5,493.4c-1.7,0-3.3-1.7-3.3-3.3c0-1.7,1.7-3.3,3.3-3.3h17.4
						c1.7,0,3.3,1.7,3.3,3.3c0,1.7-1.7,3.3-3.3,3.3H347.5z M52.2,493.4c-1.7,0-3.3-1.7-3.3-3.3c0-1.7,1.7-3.3,3.3-3.3h66.4
						c1.7,0,3.3,1.7,3.3,3.3c0,1.7-1.7,3.3-3.3,3.3H52.2z M374.1,156.7L374.1,156.7L374.1,156.7L374.1,156.7L374.1,156.7
						L374.1,156.7L374.1,156.7L374.1,156.7L374.1,156.7L374.1,156.7h0.8l0,0l0,0l0,0l0,0l0,0l0,0l0,0l0,0l0,0l0,0l0,0l0,0l0,0l0,0
						l0,0l0,0l0,0l0,0l0,0l0,0l0,0l0,0l0,0l0,0l0,0l0,0l0,0l0,0l0,0l0,0l0,0l0,0l0,0l0,0l0,0l0,0l0,0l0,0l0,0l0,0l0,0l0,0l0,0l0,0
						l0,0l0,0l0,0h0.8l0,0l0,0l0,0l0,0h0.8l0,0h0.8l0,0h1.7V92c0-2.5-0.8-5.8-3.3-7.5c-1.7-1.7-4.1-3.3-7.5-3.3h-66.4v14.9
						c0,1.7-1.7,3.3-3.3,3.3H175.8c-1.7,0-3.3-1.7-3.3-3.3V81.2h-66.4c-2.5,0-5.8,0.8-7.5,3.3c-1.7,1.7-3.3,4.1-3.3,7.5v338.4
						c0,2.5,0.8,5.8,3.3,7.5c1.7,1.7,4.1,3.3,7.5,3.3h270.4c2.5,0,5.8-0.8,7.5-3.3c1.7-1.7,3.3-4.1,3.3-7.5v-24.9h-1.7l0,0h-0.8l0,0
						H384l0,0l0,0l0,0l0,0h-0.8l0,0l0,0l0,0l0,0l0,0l0,0l0,0l0,0l0,0l0,0l0,0l0,0l0,0l0,0l0,0l0,0l0,0l0,0l0,0l0,0l0,0l0,0l0,0l0,0
						l0,0l0,0l0,0l0,0l0,0l0,0l0,0l0,0l0,0l0,0l0,0l0,0l0,0l0,0l0,0l0,0l0,0l0,0l0,0l0,0l0,0l0,0l0,0l0,0l0,0l0,0l0,0l0,0l0,0l0,0
						l0,0l0,0l0,0c-34.8,0-65.5-14.1-87.9-36.5c-22.4-22.4-36.5-53.9-36.5-87.9c0-34.8,14.1-65.5,36.5-87.9
						C307.7,170.8,339.2,156.7,374.1,156.7z"/>
				</g>
			</g>
			<g id="Layer_1_00000071554877095603844880000001948836955838605711_">
			</g>
		</g>
	</g>
</g>
</svg>
