<?xml version="1.0" encoding="utf-8"?>
<!-- Generator: Adobe Illustrator 22.0.1, SVG Export Plug-In . SVG Version: 6.00 Build 0)  -->
<svg version="1.1" id="Layer_1" xmlns="http://www.w3.org/2000/svg" xmlns:xlink="http://www.w3.org/1999/xlink" x="0px" y="0px"
	 viewBox="0 0 512 512" style="enable-background:new 0 0 512 512;" xml:space="preserve">
<style type="text/css">
	.st0{fill:#2C2557;}
</style>
<g>
	<g>
		<g>
			<g id="_x36_95-Detective_x2C__Search_x2C__Searching">
				<g>
					<path class="st0" d="M355.6,282.1c13.8-25.2,21.4-53.5,21.4-83.4c0-94.9-77.3-172.1-172.1-172.1
						c-94.9,0-172.1,77.3-172.1,172.1c0,94.8,77.3,172.1,172.1,172.1c29.8,0,58.1-7.6,83.4-21.4l106.3,106.3
						c18.4,18.4,49,18.4,67.3,0c18.4-18.4,18.4-49,0-67.3L355.6,282.1z M51.9,198.7c0-84.9,68.1-153,153-153s153,68.1,153,153
						c0,84.9-68.8,153-153,153C120,351.7,51.9,283.6,51.9,198.7z M448.2,442c-11.5,11.5-29.1,11.5-40.5,0L304.3,338.7
						c15.3-11.5,29.1-25.2,40.5-40.5l103.3,103.3C459.6,412.9,459.6,431.3,448.2,442z"/>
					<path class="st0" d="M319.6,198.7c0-63.5-51.2-114.7-114.7-114.7c-63.5,0-114.7,51.2-114.7,114.7
						c0,63.5,51.2,114.7,114.7,114.7C268.4,313.5,319.6,262.2,319.6,198.7z M109.3,198.7c0-52.8,42.8-95.6,95.6-95.6
						c25.2,0,49.7,9.9,67.3,28.3l0,0c37.5,37.5,37.5,97.9,0,135.4c-37.5,37.5-97.9,37.5-135.4,0C119.2,248.4,109.3,224,109.3,198.7z
						"/>
					<path class="st0" d="M171.2,151.3c-3.8-3.8-9.9-3.8-13.8,0c-26,26-26,68.8,0,94.9c3.8,3.8,9.9,3.8,13.8,0
						c3.8-3.8,3.8-9.9,0-13.8c-18.4-18.4-18.4-49,0-67.3C175.1,161.2,175.1,155.1,171.2,151.3z"/>
					<path class="st0" d="M157.5,389.9c-16.1,0-29.1,13-29.1,29.1c0,16.1,13,29.1,29.1,29.1s29.1-13,29.1-29.1
						C186.5,402.9,172.8,389.9,157.5,389.9z M157.5,428.2c-5.4,0-9.9-4.6-9.9-9.9c0-5.4,4.6-9.9,9.9-9.9c5.4,0,9.9,4.6,9.9,9.9
						C166.7,423.6,162.1,428.2,157.5,428.2z"/>
					<path class="st0" d="M381.6,93.9c13,0,23.7-10.7,23.7-23.7c0-13-10.7-23.7-23.7-23.7c-13,0-23.7,10.7-23.7,23.7
						C357.9,83.2,368.6,93.9,381.6,93.9z M381.6,64.8c2.3,0,4.6,2.3,4.6,4.6c0,2.3-2.3,4.6-4.6,4.6c-2.3,0-4.6-1.5-4.6-4.6
						C377,66.4,379.3,64.8,381.6,64.8z"/>
					<path class="st0" d="M448.9,246.9c18.4,0,33.7-15.3,33.7-33.7c0-18.4-15.3-33.7-33.7-33.7c-18.4,0-33.7,15.3-33.7,33.7
						C415.3,231.6,430.6,246.9,448.9,246.9z M448.9,198.7c7.7,0,14.5,6.1,14.5,14.5c0,8.4-6.1,14.5-14.5,14.5
						c-8.4,0-14.5-6.1-14.5-14.5C434.4,204.8,440.5,198.7,448.9,198.7z"/>
					<path class="st0" d="M434.4,103.1c5.5,0,9.9,4.5,9.9,9.9c0,5.5-4.5,9.9-9.9,9.9c-5.5,0-9.9-4.5-9.9-9.9
						C424.4,107.5,428.9,103.1,434.4,103.1z"/>
					<path class="st0" d="M444.3,275.2c5.5,0,9.9,4.5,9.9,9.9c0,5.5-4.5,9.9-9.9,9.9s-9.9-4.4-9.9-9.9
						C434.4,279.7,438.8,275.2,444.3,275.2z"/>
					<path class="st0" d="M300.5,428.2c5.5,0,9.9,4.5,9.9,9.9c0,5.5-4.4,9.9-9.9,9.9c-5.5,0-9.9-4.5-9.9-9.9
						C290.6,432.6,295,428.2,300.5,428.2z"/>
					<path class="st0" d="M224,389.9c5.5,0,9.9,4.5,9.9,9.9c0,5.5-4.5,9.9-9.9,9.9c-5.5,0-9.9-4.5-9.9-9.9
						C214.1,394.4,218.5,389.9,224,389.9z"/>
					<path class="st0" d="M81,360.9c5.5,0,9.9,4.5,9.9,9.9c0,5.5-4.5,9.9-9.9,9.9c-5.5,0-9.9-4.5-9.9-9.9
						C71,365.3,75.5,360.9,81,360.9z"/>
					<path class="st0" d="M185.8,131.4c5.5,0,9.9,4.5,9.9,9.9c0,5.5-4.5,9.9-9.9,9.9c-5.5,0-9.9-4.4-9.9-9.9
						C175.8,135.9,180.3,131.4,185.8,131.4z"/>
				</g>
			</g>
			<g id="Layer_1_00000043422966440536162810000006933699176253556901_">
			</g>
		</g>
	</g>
</g>
</svg>
