<?xml version="1.0" encoding="utf-8"?>
<!-- Generator: Adobe Illustrator 22.0.1, SVG Export Plug-In . SVG Version: 6.00 Build 0)  -->
<svg version="1.1" id="Layer_1" xmlns="http://www.w3.org/2000/svg" xmlns:xlink="http://www.w3.org/1999/xlink" x="0px" y="0px"
	 viewBox="0 0 512 512" style="enable-background:new 0 0 512 512;" xml:space="preserve">
<style type="text/css">
	.st0{display:none;fill:#2C2557;}
	.st1{fill:#2C2557;}
	.st2{fill:#2C2557;stroke:#2C2557;stroke-width:15;stroke-miterlimit:10;}
</style>
<g>
	<g>
		<g>
			<g id="Layer_1_00000183952724522712955060000013383403126417913248_">
			</g>
		</g>
	</g>
</g>
<g>
	<g id="Layer_1_00000121263454955084989310000006263357639372097937_">
	</g>
</g>
<g>
	<g id="_x36_87-Page_x2C__School_x2C__Staff_x2C__Student_x2C__User">
		<g>
			<path class="st0" d="M186.9,240.1h118.4c5.5,0,10.3-4.7,10.3-10.3c0-25.3-13.4-47.3-34.7-60c3.2-5.5,4.7-11.8,4.7-18.9
				c0-22.1-17.4-39.5-39.5-39.5c-22.1,0-39.5,17.4-39.5,39.5c0,7.1,1.6,13.4,4.7,18.9c-21.3,11.8-34.7,34.7-34.7,60
				C176.6,235.4,181.4,240.1,186.9,240.1z M246.1,132c11,0,19.7,8.7,19.7,19.7c0,11-8.7,19.7-19.7,19.7c-11,0-19.7-8.7-19.7-19.7
				C226.3,140.7,235,132,246.1,132z M225.5,184.9c12.6,7.1,27.6,7.1,40.2,0c15,6.3,25.2,19.7,28.4,35.5h-97.1
				C200.3,204.6,210.6,192,225.5,184.9z"/>
			<path class="st1" d="M403.9,62.5h-30v-30c0-5.5-4.7-10.3-10.3-10.3H48c-5.5,0-10.3,4.7-10.3,10.3v414.3c0,5.5,4.7,10.3,10.3,10.3
				h30v19.7c0,5.5,4.7,10.3,10.3,10.3h315.6c5.5,0,10.3-4.7,10.3-10.3v-404C413.4,67.3,408.6,62.5,403.9,62.5z M58.3,437.4V42.8
				h295.9v19.7H88.2c-5.5,0-10.3,4.7-10.3,10.3v365.4H58.3V437.4z M97.7,467.4V171.4h30c5.5,0,10.3-4.7,10.3-10.3
				c0-5.5-4.7-10.3-10.3-10.3h-30V81.5h295.9v30h-49.7c-5.5,0-10.3,4.7-10.3,10.3c0,5.5,4.7,10.3,10.3,10.3h49.7v335.4H97.7z"/>
			<path class="st1" d="M433.1,338.7c5.7,0,10.3,4.6,10.3,10.3c0,5.7-4.6,10.3-10.3,10.3c-5.7,0-10.3-4.6-10.3-10.3
				C422.8,343.3,427.4,338.7,433.1,338.7z"/>
			<path class="st1" d="M295,367.9c5.7,0,10.3,4.6,10.3,10.3c0,5.7-4.6,10.3-10.3,10.3c-5.7,0-10.3-4.6-10.3-10.3
				C284.7,372.5,289.3,367.9,295,367.9z"/>
			<path class="st1" d="M156.9,150.9c5.7,0,10.3,4.6,10.3,10.3c0,5.7-4.6,10.3-10.3,10.3c-5.7,0-10.3-4.6-10.3-10.3
				C146.6,155.5,151.2,150.9,156.9,150.9z"/>
			<path class="st1" d="M314.7,111.5c5.7,0,10.3,4.6,10.3,10.3c0,5.7-4.6,10.3-10.3,10.3c-5.7,0-10.3-4.6-10.3-10.3
				C304.5,116.1,309,111.5,314.7,111.5z"/>
			<path class="st1" d="M433.1,92.5c-5.5,0-10.3,4.7-10.3,10.3v217c0,5.5,4.7,10.3,10.3,10.3c5.5,0,10.3-4.7,10.3-10.3V102
				C443.3,96.5,438.6,92.5,433.1,92.5z"/>
			<path class="st1" d="M463.1,270.1c-5.5,0-10.3,4.7-10.3,10.3v148.4c0,5.5,4.7,10.3,10.3,10.3c5.5,0,10.3-4.7,10.3-10.3V279.5
				C472.5,274,467.8,270.1,463.1,270.1z"/>
			<path class="st1" d="M364.4,259.8H127.7c-5.5,0-10.3,4.7-10.3,10.3v39.5c0,5.5,4.7,10.3,10.3,10.3h236.7
				c5.5,0,10.3-4.7,10.3-10.3v-39.5C373.9,264.6,369.2,259.8,364.4,259.8z M354.2,299.3h-217v-19.7h217V299.3z"/>
			<path class="st1" d="M127.7,358.5h59.2c5.5,0,10.3-4.7,10.3-10.3s-5.5-9.5-10.3-9.5h-59.2c-5.5,0-10.3,4.7-10.3,10.3
				C117.4,354.5,122.2,358.5,127.7,358.5z"/>
			<path class="st1" d="M127.7,388.4h138.1c5.5,0,10.3-4.7,10.3-10.3c0-5.5-4.7-10.3-10.3-10.3H127.7c-5.5,0-10.3,4.7-10.3,10.3
				C117.4,383.7,122.2,388.4,127.7,388.4z"/>
			<path class="st1" d="M364.4,397.9H127.7c-5.5,0-10.3,4.7-10.3,10.3c0,5.5,4.7,10.3,10.3,10.3h236.7c5.5,0,10.3-4.7,10.3-10.3
				C373.9,402.7,369.2,397.9,364.4,397.9z"/>
		</g>
	</g>
	<g id="Layer_1_00000001624729192058084150000001229139315869830815_">
	</g>
	<line class="st2" x1="194.2" y1="92.5" x2="297.2" y2="195.5"/>
	<line class="st2" x1="297.2" y1="92.5" x2="194.2" y2="195.5"/>
</g>
</svg>
