<?xml version="1.0" encoding="utf-8"?>
<!-- Generator: Adobe Illustrator 22.0.1, SVG Export Plug-In . SVG Version: 6.00 Build 0)  -->
<svg version="1.1" id="Layer_1" xmlns="http://www.w3.org/2000/svg" xmlns:xlink="http://www.w3.org/1999/xlink" x="0px" y="0px"
	 viewBox="0 0 512 512" style="enable-background:new 0 0 512 512;" xml:space="preserve">
<style type="text/css">
	.st0{fill:#2C2557;}
</style>
<g>
	<g>
		<g>
			<g id="Layer_1_00000183952724522712955060000013383403126417913248_">
			</g>
		</g>
	</g>
</g>
<g>
	<g id="_x36_85-Certificate_x2C__Degree_x2C__Diploma">
		<g>
			<path class="st0" d="M429.5,92.1h-29.7V62.4c0-5.5-4.7-10.2-10.2-10.2H184.7v-4.7c0-13.3-10.9-24.2-24.2-24.2
				c-13.3,0-24.2,11-24.2,24.2v4.7H97.1c-5.5,0-10.2,4.7-10.2,10.2v371.5c0,5.5,4.7,10.2,10.2,10.2h29.7v29.7
				c0,5.5,4.7,10.2,10.2,10.2h58.7c5.5,0,10.2-4.7,10.2-10.2c0-5.5-4.7-10.2-10.2-10.2h-50.1V444h85.3l-10.2,25
				c-3.1,7.8,3.9,15.6,11.7,13.3l48.5-12.5l47.7,12.5c7.8,2.3,14.9-5.5,11.7-13.3l-10.2-25.8h60.2c5.5,0,10.2-4.7,10.2-10.2V111.6
				h18.8v351.9h-49.3c-5.5,0-10.2,4.7-10.2,10.2c0,5.5,4.7,10.2,10.2,10.2h58.7c5.5,0,10.2-4.7,10.2-10.2V101.5
				C438.9,96,434.2,92.1,429.5,92.1z M155.8,47.5c0-2.3,2.3-4.7,4.7-4.7c2.3,0,4.7,2.3,4.7,4.7v4.7H155v-4.7H155.8z M223.1,372.8
				c-3.9-3.9-3.9-10.2,0-13.3c3.9-4.7,5.5-10.2,4.7-16.4c-1.6-5.5,1.6-10.2,7-11.7c5.5-1.6,10.2-6.2,11.7-11.7
				c1.6-4.7,6.2-7.8,11.7-7c5.5,1.6,11.7,0,16.4-4.7c3.9-3.9,10.2-3.9,13.3,0c4.7,3.9,10.2,5.5,16.4,4.7c5.5-1.6,10.2,1.6,11.7,7
				c1.6,5.5,6.3,10.2,11.7,11.7c4.7,1.6,7.8,7,7,11.7c-1.6,5.5,0,11.7,4.7,16.4c3.9,3.9,3.9,10.2,0,13.3c-3.9,4.7-5.5,10.2-4.7,16.4
				c1.6,5.5-1.6,10.2-7,11.7c-5.5,1.6-10.2,6.3-11.7,11.7c-1.6,4.7-7,7.8-11.7,7c-5.5-1.6-11.7,0-16.4,4.7l-0.8,0.8l0,0
				c-2.3,2.3-6.3,1.6-5.5,1.6c0,0-3.9,0-7-2.3c-4.7-3.9-10.2-5.5-16.4-4.7c-5.5,1.6-10.2-1.6-11.7-7c-1.6-5.5-6.3-10.2-11.7-11.7
				c-4.7-1.6-7.8-7-7-11.7C228.5,383,227,376.8,223.1,372.8z M254.4,438.5c2.3,0,4.7,0,7-0.8c3.1,2.3,6.3,4.7,9.4,5.5v7.8l-25,6.3
				L254.4,438.5z M290.3,451.8V444c1.6-0.8,3.9-1.6,5.5-2.3c1.6-0.8,2.3-1.6,3.9-2.3c0,0,0.8,0,0.8-0.8c2.3,0.8,4.7,0.8,7,0.8
				l7.8,19.6L290.3,451.8z M380.3,424.5h-48.5c0.8-1.6,1.6-3.1,2.3-5.5c14.1-4.7,22.7-19.6,19.6-33.6c9.4-10.9,9.4-28.2,0-39.1
				c3.1-14.9-5.5-28.9-19.6-33.6c-4.7-14.1-19.6-22.7-33.6-19.6c-10.9-9.4-28.1-10.2-39.1,0c-14.9-3.1-28.9,5.5-33.6,19.6
				c-14.1,4.7-22.7,18.8-19.6,33.6c-9.4,10.9-9.4,28.2,0,39.1c-3.1,14.9,5.5,28.9,19.6,33.6c0.8,1.6,1.6,3.9,2.3,5.5H106.5V72.5
				h58.7v39.1c0,5.5,4.7,10.2,10.2,10.2c5.5,0,10.2-4.7,10.2-10.2V72.5H381v351.9H380.3z"/>
			<path class="st0" d="M458.5,81.9c5.6,0,10.2,4.6,10.2,10.2c0,5.6-4.6,10.2-10.2,10.2s-10.2-4.6-10.2-10.2
				C448.3,86.5,452.9,81.9,458.5,81.9z"/>
			<path class="st0" d="M468.6,199.2c5.6,0,10.2,4.5,10.2,10.2c0,5.6-4.5,10.2-10.2,10.2c-5.6,0-10.2-4.6-10.2-10.2
				C458.5,203.8,463,199.2,468.6,199.2z"/>
			<path class="st0" d="M47.9,121c5.6,0,10.2,4.6,10.2,10.2c0,5.6-4.6,10.2-10.2,10.2c-5.6,0-10.2-4.6-10.2-10.2
				C37.7,125.6,42.3,121,47.9,121z"/>
			<path class="st0" d="M67.4,257.9c5.6,0,10.2,4.6,10.2,10.2c0,5.6-4.5,10.2-10.2,10.2c-5.6,0-10.2-4.6-10.2-10.2
				C57.3,262.4,61.8,257.9,67.4,257.9z"/>
			<path class="st0" d="M67.4,443.2c5.6,0,10.2,4.6,10.2,10.2c0,5.6-4.5,10.2-10.2,10.2c-5.6,0-10.2-4.6-10.2-10.2
				C57.3,447.8,61.8,443.2,67.4,443.2z"/>
			<path class="st0" d="M52.6,336.1c-13.3,0-24.2,10.9-24.2,24.2c0,13.3,11,24.2,24.2,24.2c13.3,0,24.2-11,24.2-24.2
				C77.6,347,65.9,336.1,52.6,336.1z M52.6,365.8c-2.3,0-4.7-2.3-4.7-4.7c0-2.3,2.3-4.7,4.7-4.7c2.3,0,4.7,2.3,4.7,4.7
				C57.3,363.5,55.7,365.8,52.6,365.8z"/>
			<path class="st0" d="M473.3,414.3c-13.3,0-24.2,10.9-24.2,24.2c0,13.3,11,24.2,24.2,24.2c13.3,0,24.2-10.9,24.2-24.2
				C497.6,425.2,486.6,414.3,473.3,414.3z M473.3,444c-2.3,0-4.7-2.3-4.7-4.7c0-2.3,2.3-4.7,4.7-4.7c2.3,0,4.7,2.3,4.7,4.7
				C478,441.7,475.7,444,473.3,444z"/>
			<path class="st0" d="M280.9,411.2c25,0,46.1-20.3,46.1-46.1c0-25-20.3-46.1-46.1-46.1c-25,0-46.1,20.3-46.1,46.1
				C234.8,390.8,255.1,411.2,280.9,411.2z M280.9,339.2c14.9,0,26.6,11.7,26.6,26.6c0,14.9-11.7,26.6-26.6,26.6
				c-14.9,0-26.6-11.7-26.6-26.6C254.4,351,266.1,339.2,280.9,339.2z"/>
			<path class="st0" d="M351.3,238.3H136.3c-5.5,0-10.2,4.7-10.2,10.2c0,5.5,4.7,10.2,10.2,10.2h215.1c5.5,0,10.2-4.7,10.2-10.2
				C360.7,243,356,238.3,351.3,238.3z"/>
			<path class="st0" d="M351.3,209.4H136.3c-5.5,0-10.2,4.7-10.2,10.2c0,5.5,4.7,10.2,10.2,10.2h215.1c5.5,0,10.2-4.7,10.2-10.2
				C360.7,213.3,356,209.4,351.3,209.4z"/>
			<path class="st0" d="M351.3,179.7H136.3c-5.5,0-10.2,4.7-10.2,10.2c0,5.5,4.7,10.2,10.2,10.2h215.1c5.5,0,10.2-4.7,10.2-10.2
				C360.7,184.4,356,179.7,351.3,179.7z"/>
			<path class="st0" d="M204.3,170.3h78.2c5.5,0,10.2-4.7,10.2-10.2c0-5.5-4.7-10.2-10.2-10.2h-78.2c-5.5,0-10.2,4.7-10.2,10.2
				C194.9,165.6,198.8,170.3,204.3,170.3z"/>
		</g>
	</g>
	<g id="Layer_1_00000121263454955084989310000006263357639372097937_">
	</g>
</g>
</svg>
