<?xml version="1.0" encoding="utf-8"?>
<!-- Generator: Adobe Illustrator 22.0.1, SVG Export Plug-In . SVG Version: 6.00 Build 0)  -->
<svg version="1.1" id="Layer_1" xmlns="http://www.w3.org/2000/svg" xmlns:xlink="http://www.w3.org/1999/xlink" x="0px" y="0px"
	 viewBox="0 0 512 512" style="enable-background:new 0 0 512 512;" xml:space="preserve">
<style type="text/css">
	.st0{fill:#2C2557;}
</style>
<g>
	<g>
		<g>
			<g id="Layer_1_00000183952724522712955060000013383403126417913248_">
			</g>
		</g>
	</g>
</g>
<g>
	<g id="Layer_1_00000121263454955084989310000006263357639372097937_">
	</g>
</g>
<g>
	<path class="st0" d="M483,60.5C449.7,27.2,405.4,8.9,358.4,8.9c-47.1,0-91.3,18.3-124.6,51.6c-2.8,2.8-2.8,7.4,0,10.2
		c2.8,2.8,7.4,2.8,10.2,0c30.5-30.5,71.2-47.4,114.4-47.4c43.2,0,83.8,16.8,114.4,47.4c1.4,1.4,3.3,2.1,5.1,2.1
		c1.9,0,3.7-0.7,5.1-2.1C485.8,67.9,485.8,63.3,483,60.5z"/>
	<path class="st0" d="M281.6,108.3c20.5-20.5,47.8-31.8,76.8-31.8c29,0,56.3,11.3,76.8,31.8c1.4,1.4,3.3,2.1,5.1,2.1
		c1.9,0,3.7-0.7,5.1-2.1c2.8-2.8,2.8-7.4,0-10.2c-23.2-23.2-54.1-36-87-36c-32.9,0-63.8,12.8-87,36c-2.8,2.8-2.8,7.4,0,10.2
		C274.2,111.2,278.8,111.2,281.6,108.3z"/>
	<path class="st0" d="M306.2,141.7h-0.6c0.2,0.4,0.4,0.8,0.6,1.2V141.7z"/>
	<path class="st0" d="M349.2,171.1c0,5.7,4.7,10.4,10.4,10.4c5.7,0,10.4-4.7,10.4-10.4c0-5.7-4.7-10.4-10.4-10.4
		C353.8,160.7,349.2,165.3,349.2,171.1z"/>
	<path class="st0" d="M143.8,204.3H273c4.2,0,7.6-3.4,7.6-7.6c0-4.2-3.4-7.6-7.6-7.6H143.8c-4.2,0-7.6,3.4-7.6,7.6
		C136.3,200.9,139.7,204.3,143.8,204.3z"/>
	<path class="st0" d="M280.5,248.5c0-4.2-3.4-7.6-7.6-7.6H143.8c-4.2,0-7.6,3.4-7.6,7.6c0,4.2,3.4,7.6,7.6,7.6H273
		C277.1,256.1,280.5,252.7,280.5,248.5z"/>
	<path class="st0" d="M465.3,391.5L366,332.8V221.1c0-4.2-3.4-7.6-7.6-7.6h-37v-72.9h0c10.4-8.7,23.3-13.4,37-13.4
		c15.5,0,30,6,40.9,17c1.4,1.4,3.3,2.1,5.1,2.1c1.9,0,3.7-0.7,5.1-2.1c2.8-2.8,2.8-7.4,0-10.2c-13.7-13.7-31.8-21.2-51.2-21.2
		c-15.6,0-30.4,4.9-42.8,14c-0.6-0.1-1.2-0.2-1.8-0.2H106.8c-4.2,0-7.6,3.4-7.6,7.6v79.4H51.7c-4.2,0-7.6,3.4-7.6,7.6v210.7
		c0,4.2,3.4,7.6,7.6,7.6H53h0h0h285.3l6.8,36.4c1.3,6.7,6.9,11.5,13.5,11.5c5.1,0,9.5-3,11.4-7.8l14.7-31.7l23.4,33.3
		c4.6,6.6,12.3,10.6,20.4,10.6c5.1,0,10-1.6,14.2-4.5c11.2-7.9,13.9-23.4,6.1-34.6l-23.5-33.6l34.9-2.8c5.5-0.1,10.1-3.7,11.6-9.1
		C473.5,401.2,470.8,394.8,465.3,391.5z M321.4,228.7h17.3l-17.3,13.6V228.7z M350.8,238.5v85.3l-14.4-8.5c-2-1.2-4.3-1.8-6.7-1.8
		c-3.7,0-7.2,1.6-9.5,4.4c-2.4,2.9-3.4,6.8-2.6,10.6l8.4,44.6l-52.4-73.8L350.8,238.5z M114.4,259.4V141.7h191.2h0h0.6v1.2l0,0V249
		c0,1.6,0.5,3,1.3,4.3L261.9,289l-6.8,5.3L208.5,331l-94.2-70.7C114.4,260,114.4,259.7,114.4,259.4z M99.2,228.7V249l-27.1-20.3
		H99.2z M59.3,238l79.6,59.7L59.3,410V238z M67.8,424.3l83.3-117.4l53,39.8c1.4,1,3,1.5,4.6,1.5c1.7,0,3.3-0.5,4.7-1.6l48.2-37.9
		l71,100.1l2.9,15.6H67.8z M412.5,406.5c-2.4,0.2-4.6,1.7-5.6,3.9c-1,2.2-0.8,4.8,0.6,6.8l30.3,43.3c3.6,5.1,2.3,12.1-2.8,15.7
		c-1.9,1.3-4.1,2-6.5,2c-3.7,0-7.1-1.8-9.2-4.8l-30.1-43c-1.3-1.8-3.4-2.9-5.6-2.9l-0.6,0c-2.4,0.2-4.5,1.7-5.6,3.9l-19.1,41.1
		l-6.2-33.1l-0.8-4.3l-2-10.9l-4.6-24.8L331.3,328l19.5,11.5l15.2,9l91.8,54.3L412.5,406.5z"/>
</g>
</svg>
