<?xml version="1.0" encoding="utf-8"?>
<!-- Generator: Adobe Illustrator 22.0.1, SVG Export Plug-In . SVG Version: 6.00 Build 0)  -->
<svg version="1.1" id="Layer_1" xmlns="http://www.w3.org/2000/svg" xmlns:xlink="http://www.w3.org/1999/xlink" x="0px" y="0px"
	 viewBox="0 0 512 512" style="enable-background:new 0 0 512 512;" xml:space="preserve">
<style type="text/css">
	.st0{fill-rule:evenodd;clip-rule:evenodd;fill:#2C2557;}
</style>
<g>
	<g>
		<g>
			<g id="Layer_1_00000183952724522712955060000013383403126417913248_">
			</g>
		</g>
	</g>
</g>
<g>
	<g id="Layer_1_00000121263454955084989310000006263357639372097937_">
	</g>
</g>
<path class="st0" d="M443.1,175.4v278.5c0,5.4-4.3,9.7-9.7,9.7h-79.6c-5.2,0-9.4-4.3-9.4-9.7V222l78.5-62l18,21.2L443.1,175.4z
	 M476.8,49.6l-17.8,50.4l-18,50.6l-18-21.2L275.3,246c-6.4,6-16.3,7.5-24.5,3l-108.6-59.9l-82.2,70c-8.8,7.7-22.1,6.7-29.6-2.1
	c-7.5-9-6.7-22.3,2.4-29.8l93.1-79.4c6.9-6,16.5-6.7,24-2.6l109,60.1L395.4,97.5l-24-28.5l52.6-9.7L476.8,49.6z M136,225h15.9
	l16.5,9v0.4v219.5c0,5.4-4.3,9.7-9.7,9.7H79.3c-5.4,0-9.7-4.3-9.7-9.7V281.6L136,225z M305.7,252.4v201.5c0,5.4-4.3,9.7-9.7,9.7
	h-79.4c-5.4,0-9.7-4.3-9.7-9.7V255.4l43.8,24c8.2,4.5,18,3,24.5-3L305.7,252.4z"/>
</svg>
