<?xml version="1.0" encoding="utf-8"?>
<!-- Generator: Adobe Illustrator 22.0.1, SVG Export Plug-In . SVG Version: 6.00 Build 0)  -->
<svg version="1.1" id="Layer_1" xmlns="http://www.w3.org/2000/svg" xmlns:xlink="http://www.w3.org/1999/xlink" x="0px" y="0px"
	 viewBox="0 0 512 512" style="enable-background:new 0 0 512 512;" xml:space="preserve">
<style type="text/css">
	.st0{fill:#2C2557;}
</style>
<g>
	<g>
		<g>
			<g id="Layer_1_00000183952724522712955060000013383403126417913248_">
			</g>
		</g>
	</g>
</g>
<g>
	<g id="Layer_1_00000121263454955084989310000006263357639372097937_">
	</g>
</g>
<g>
	<path class="st0" d="M27.2,56.8H90l191.6,284.8V56.8h22v366.5h-29.8L72.2,123.9v299.5H50.7V91.9L27.2,56.8z"/>
	<path class="st0" d="M416.2,49.5c38.2-0.5,68.6,27.2,68.6,66.5c0,39.3-30.4,66.5-68.6,66c-37.7,0.5-68.1-26.7-68.1-66
		C348.2,76.7,378.5,49,416.2,49.5z M407.3,167.8c20.4,4.2,40.8-14.7,46.1-45.6c5.2-30.9-7.3-55.5-27.8-58.6
		c-20.4-4.2-40.8,14.7-46.1,45.6C373.8,140.1,386.9,164.7,407.3,167.8z"/>
</g>
</svg>
