<?xml version="1.0" encoding="utf-8"?>
<!-- Generator: Adobe Illustrator 22.0.1, SVG Export Plug-In . SVG Version: 6.00 Build 0)  -->
<svg version="1.1" id="Layer_1" xmlns="http://www.w3.org/2000/svg" xmlns:xlink="http://www.w3.org/1999/xlink" x="0px" y="0px"
	 viewBox="0 0 512 512" style="enable-background:new 0 0 512 512;" xml:space="preserve">
<style type="text/css">
	.st0{fill-rule:evenodd;clip-rule:evenodd;fill:#2C2557;}
</style>
<g>
	<g>
		<g>
			<g id="Layer_1_00000183952724522712955060000013383403126417913248_">
			</g>
		</g>
	</g>
</g>
<g>
	<g>
		<g>
			<g id="_x32_16_x2C__global_x2C__student_x2C__network_x2C__globe_x2C__kids">
				<g id="XMLID_00000060741265478794336590000007684142211945702558_">
					<path id="XMLID_00000170967300453934831480000003623495033664624796_" class="st0" d="M235,380.8c-0.8-6.4,1.6-8.8,7.2-15.3
						c2.4-2.4,4.8-5.6,8.8-9.7c2.4-3.2,3.2-4.8,3.2-4.8c-3.2-2.4-20.1,3.2-26.5,4.8l-4,0.8c-7.2,2.4-19.3,6.4-25.7,1.6
						c-4.8-3.2-5.6-8-6.4-12.9c-0.8-5.6-1.6-12.1-16.1-16.1c-6.4-1.6-11.3-4.8-16.1-6.4c-6.4-3.2-12.1-6.4-20.9-4.8l0,0l0.8,0.8
						l0.8,0.8l0,0l0.8,0.8v0.8l0,0l0.8,0.8l0.8,0.8l0.8,0.8l0,0v0.8l0.8,0.8l0.8,0.8l0,0l0.8,0.8l0,0l0.8,0.8l0,0l0.8,0.8l0.8,0.8
						l0.8,0.8l0.8,0.8l0.8,0.8l0,0l0.8,0.8l0,0l0.8,0.8l0.8,0.8l0,0l0.8,0.8l0.8,0.8l0,0l0.8,0.8l0.8,0.8l0.8,0.8l0,0l0.8,0.8
						l0.8,0.8l0,0l-3.2-1.6l0.8,0.8l0,0l0.8,0.8l0.8,0.8l0,0l0.8,0.8l0,0l0,0l0.8,0.8l0,0l0.8,0.8l0.8,0.8l0,0l0.8,0.8l0.8,0.8l0,0
						l0.8,0.8l0.8,0.8l0,0l0.8,0.8l0,0l0,0l0.8,0.8l0,0l0.8,0.8l0.8,0.8l0,0l0.8,0.8l0.8,0.8l0,0l0.8,0.8l0.8,0.8l0,0l0.8,0.8l0,0
						l0,0l0.8,0.8l0,0l0,0l0.8,0.8l0,0l0.8,0.8l0.8,0.8l0,0l0.8,0.8h0.8l0,0l0.8,0.8l0,0l0,0l0.8,0.8l0,0l1.6,0.8l0,0l0.8,0.8
						l0.8,0.8l0,0l0.8,0.8h0.8l0,0l1.6,0.8l0,0l0.8,0.8l0,0l1.6,0.8l0,0h0.8l0.8,0.8l0,0l1.6,0.8l0,0l1.6,0.8l0,0l0.8,0.8h0.8
						c1.6,0.8,3.2,1.6,4,2.4l0,0h0.8h0.8h0.8h0.8l0,0h0.8h0.8l0,0l2.4,0.8l0,0c0.8,0.8,2.4,0.8,3.2,0.8l0,0h0.8h0.8l0,0h0.8h0.8
						l1.6,0.8h0.8h0.8l0,0h0.8h0.8l0,0l0,0c0.8,0,2.4,0.8,3.2,0.8l0,0h0.8h0.8l0,0h0.8h0.8l0,0h0.8l0,0h0.8h0.8l0,0h1.6l0,0h0.8h0.8
						l0,0h0.8h0.8l0,0h0.8h0.8l0,0h0.8L235,380.8L235,380.8z M152.2,151.7c-12.9,14.5-22.5,31.4-28.1,49.9v0.8l-0.8,3.2v0.8v0.8v0.8
						c2.4,0.8,4.8,0.8,7.2,0.8c4,0.8,8,0.8,12.9,0.8c6.4,0,15.3,0.8,22.5,4c5.6,2.4,9.6,6.4,10.5,12.9c0.8,3.2,0,7.2-1.6,11.3
						c-1.6,8.8-4.8,20.1,4,28.1c6.4,6.4,9.7,4.8,14.5,2.4l0,0c2.4-1.6,4.8-3.2,8-4c8-2.4,13.7-1.6,18.5-1.6
						c7.2,0.8,12.9,1.6,23.3-12.9c4.8-6.4,7.2-8,10.5-9.6c1.6-0.8,3.2-1.6,4.8-4c6.4-6.4-1.6-24.9-7.2-37.8c-1.6-4-3.2-7.2-4-10.5
						c-8-22.5-7.2-22.5,2.4-33c2.4-2.4,4.8-5.6,8.8-9.7c2.4-3.2,3.2-4.8,3.2-4.8c-3.2-2.4-20.1,3.2-26.5,4.8h-5.6
						c-6.4,2.4-12.9,4-17.7,3.2c-7.2-0.8-11.3-5.6-10.5-19.3l0,0c0.8-4,0.8-7.2,0.8-10.5v-4h-0.8l0,0h-0.8h-0.8l0,0l-0.8,0.8H198
						h-0.8l-0.8,0.8l0,0h-0.8h-0.8l0,0l-0.8,0.8h-0.8l0,0l-0.8,0.8l0,0h-0.8v3.2l0,0l-0.8,0.8H190l0,0l-1.6,0.8l0,0h-0.8v0.8l0,0
						l-0.8,0.8l-0.8,0.8l0,0l-0.8,0.8l0,0l-0.8,0.8l-0.8,0.8l0,0h-0.8l-0.8,0.8l0,0l-0.8,0.8l-1.6-0.8l-0.8,0.8l0,0h-0.8l-0.8,0.8
						l-0.8,0.8l-0.8,0.8l0,0l-0.8,0.8l-0.8,0.8l-0.8,0.8l0,0l-0.8,0.8C165.1,138.8,158.6,145.2,152.2,151.7z M317.9,119.5l-0.8,1.6
						c-0.8,1.6-1.6,3.2-1.6,4l0,0c-1.6,3.2-4,6.4-7.2,10.5l0,0c-6.4,8-12.9,16.9-9.7,24.1c4,8,16.9,8,29,8.8
						c16.1,0.8,32.2,1.6,37,16.9l0,0c0.8,3.2,0,7.2-1.6,11.3c-1.6,8.8-4.8,20.1,4,28.1c6.4,6.4,10.5,4.8,14.5,2.4
						c2.4-1.6,4.8-3.2,8-4l2.4-0.8c-4-28.1-16.9-53.9-35.4-73.2l0,0c-0.8-0.8-1.6-1.6-2.4-2.4l0,0l-0.8-0.8
						c-0.8-0.8-1.6-1.6-2.4-2.4l0,0c-0.8-0.8-1.6-1.6-2.4-2.4l0,0l-2.4-1.6l0,0l-1.6-0.8l0,0l-0.8-1.6l0,0l-0.8-0.8l0,0l-0.8-0.8
						l-0.8-0.8l0,0c-1.6-0.8-2.4-1.6-4-3.2l0,0C330.7,127.5,324.3,123.5,317.9,119.5z M378.2,309.3c0.8-0.8,0.8-2.4,1.6-3.2l0,0
						v-0.8l0,0v-0.8c0.8-1.6,1.6-2.4,1.6-4v-0.8l0,0v-0.8V298c-0.8-0.8-1.6-1.6-3.2-2.4c-2.4-1.6-4.8-2.4-8.8-4
						c-6.4-1.6-11.3-4.8-16.1-6.4c-7.2-4-13.7-7.2-25.7-4c-4.8,1.6-7.2,2.4-8,4c-0.8,1.6-0.8,4.8,0.8,8.8c1.6,6.4,1.6,14.5,0.8,21.7
						c-1.6,8-4,16.1-7.2,23.3l0,0c-1.6,3.2-4,6.4-7.2,10.5l0,0c-6.4,8-12.9,17.7-9.7,24.1c0,0.8,0.8,0.8,0.8,1.6l0,0h0.8h0.8l0,0
						h0.8h0.8l0,0h0.8l0,0h0.8h0.8l0,0h0.8h0.8l0,0h0.8h0.8l0,0h0.8h0.8l0,0h0.8h0.8h0.8l0,0h0.8h0.8l0,0h0.8l0.8-0.8l0,0h0.8h0.8
						l0,0l0.8-0.8h0.8l0,0l0.8-0.8h0.8l0,0l0.8-0.8l0,0h0.8l0.8-0.8l0,0h0.8l0.8-0.8l0,0l0.8-0.8l0,0l2.4-1.6l0.8-0.8l0,0l0.8-0.8
						l0.8-0.8l0,0h0.8l0.8-0.8l0,0h0.8l0.8-0.8l0,0l0.8-0.8l0.8-0.8l0,0l0.8-0.8l0.8-0.8l0.8-0.8h0.8l0,0c1.6-0.8,3.2-2.4,4-3.2
						l0.8-0.8l0,0l0.8-0.8l0.8-0.8l0,0l0.8-0.8l0,0l0,0l0.8-0.8l0,0h0.8l3.2-6.4l0,0l0.8-0.8l0.8-0.8l0,0l0.8-0.8l0.8-0.8l0,0
						l0.8-0.8l0.8-0.8l0,0l0.8-0.8l0,0l0,0l0.8-0.8l0,0l0.8-0.8l0.8-0.8l0,0l0,0l0.8-0.8l0,0l0.8-0.8l0.8-0.8l0,0l0.8-0.8v-0.8l0,0
						l0.8-0.8l0,0l0,0l0.8-0.8l0,0l0.8-0.8l0.8-0.8l0,0l0.8-0.8l0,0l1.6-1.6l0.8-0.8V327l0,0l0.8-0.8l0,0v-0.8l0.8-0.8l0.8-0.8
						l0.8-0.8l0,0l0.8-0.8l0.8-0.8l0.8-0.8v-0.8l0,0l0.8-0.8l0,0v-0.8l0.8-0.8l1.6-2.4l0,0l0.8-0.8l0,0l0.8-0.8v-0.8l0,0l0.8-0.8
						v-0.8l0,0l0.8-0.8l0.8-0.8l0.8-0.8L378.2,309.3L378.2,309.3z M109.6,484.6c-1.6,0-3.2-1.6-3.2-3.2c0-1.6,1.6-3.2,3.2-3.2h64.3
						c1.6,0,3.2,1.6,3.2,3.2c0,1.6-1.6,3.2-3.2,3.2H109.6z M383,484.6c-1.6,0-3.2-1.6-3.2-3.2c0-1.6,1.6-3.2,3.2-3.2h16.9
						c1.6,0,3.2,1.6,3.2,3.2c0,1.6-1.6,3.2-3.2,3.2H383z M232.6,484.6c-1.6,0-3.2-1.6-3.2-3.2c0-1.6,1.6-3.2,3.2-3.2h135.9
						c1.6,0,3.2,1.6,3.2,3.2c0,1.6-1.6,3.2-3.2,3.2H232.6z M116.8,473.3c-1.6,0-3.2-1.6-3.2-3.2c0-1.6,1.6-3.2,3.2-3.2h197
						c1.6,0,3.2,1.6,3.2,3.2c0,1.6-1.6,3.2-3.2,3.2H116.8z M145.8,52c3.2-1.6,6.4-2.4,9.7-1.6c3.2,0.8,5.6,3.2,7.2,5.6l0,0
						c1.6,3.2,1.6,6.4,0.8,9.7c-0.8,2.4-1.6,4-3.2,5.6l5.6,9.7l24.1,8c1.6,0.8,2.4,2.4,2.4,4c-0.8,1.6-2.4,2.4-4,2.4L166.7,89
						l-4.8,22.5c0,1.6-2.4,3.2-4,2.4c-1.6,0-3.2-2.4-2.4-4l4.8-24.9l-5.6-9.7c-2.4,0.8-4.8,0.8-6.4,0c-3.2-0.8-5.6-3.2-7.2-5.6
						c-1.6-2.4-2.4-6.4-1.6-9.7C140.1,56.8,142.5,53.6,145.8,52z M64.6,133.2L64.6,133.2c1.6-3.2,4.8-5.6,8-6.4
						c3.2-0.8,6.4-0.8,8.8,0.8h0.8c3.2,1.6,4.8,4.8,5.6,7.2c0.8,2.4,0.8,4,0,6.4l9.6,5.6l24.9-4.8c1.6,0,3.2,0.8,4,2.4
						c0,1.6-0.8,3.2-2.4,4l-22.5,4.8l7.2,21.7c0.8,1.6,0,3.2-2.4,4c-1.6,0.8-3.2,0-4-2.4l-8-24.1l-9.7-5.6c-1.6,1.6-3.2,2.4-5.6,3.2
						c-3.2,0.8-6.4,0.8-9.7-1.6c-3.2-1.6-4.8-4.8-5.6-7.2C62.1,139.6,62.9,136.4,64.6,133.2z M34.8,243.3c0-3.2,1.6-6.4,4-8.8
						c2.4-2.4,5.6-4,8.8-4c3.2,0,6.4,1.6,8.8,4c1.6,1.6,2.4,3.2,3.2,5.6H71l19.3-16.9c1.6-0.8,3.2-0.8,4.8,0c1.6,1.6,0.8,3.2,0,4.8
						l-16.9,15.3l16.9,15.3c1.6,1.6,1.6,3.2,0,4.8c-1.6,1.6-3.2,1.6-4.8,0l-18.5-16.9H60.5c-0.8,2.4-1.6,4-3.2,5.6
						c-2.4,2.4-5.6,4-8.8,4c-3.2,0-6.4-1.6-8.8-4C36.4,250.6,34.8,247.4,34.8,243.3z M64.6,354.3c-1.6-3.2-2.4-6.4-1.6-9.7
						c0.8-3.2,3.2-5.6,5.6-7.2l0,0c3.2-1.6,6.4-1.6,9.7-0.8c2.4,0.8,4,1.6,5.6,3.2l9.7-5.6l8-24.1c0.8-1.6,2.4-2.4,4-2.4
						c1.6,0.8,2.4,2.4,2.4,4l-7.2,21.7l22.5,4.8c1.6,0,3.2,2.4,2.4,4c0,1.6-2.4,3.2-4,2.4l-24.9-4.8l-9.6,5.6c0.8,2.4,0.8,4.8,0,6.4
						c-0.8,3.2-3.2,5.6-5.6,7.2c-3.2,1.6-6.4,2.4-9.6,1.6C69.4,359.1,66.2,357.5,64.6,354.3z M145.8,434.7c-3.2-1.6-4.8-4.8-5.6-7.2
						c-0.8-3.2-0.8-6.4,1.6-9.7c1.6-3.2,4.8-4.8,7.2-5.6c2.4-0.8,4-0.8,6.4,0l5.6-9.7l-5.6-24.9c0-1.6,0.8-3.2,2.4-4
						c1.6,0,3.2,0.8,4,2.4l4.8,22.5l21.7-7.2c1.6-0.8,3.2,0,4,2.4c0.8,1.6,0,3.2-2.4,4l-24.1,8l-5.6,9.7c1.6,1.6,2.4,3.2,3.2,5.6
						c0.8,3.2,0.8,6.4-1.6,9.6c-1.6,3.2-4.8,4.8-7.2,5.6C152.2,437.1,148.2,437.1,145.8,434.7z M255.9,464.5c-3.2,0-6.4-1.6-8.8-4
						c-2.4-2.4-4-5.6-4-8.8c0-3.2,1.6-6.4,4-8.8c1.6-1.6,3.2-2.4,5.6-3.2v-11.3l-16.9-18.5c-1.6-1.6-0.8-3.2,0-4.8
						c1.6-1.6,3.2-0.8,4.8,0l15.3,16.9l15.3-16.9c1.6-1.6,3.2-1.6,4.8,0c1.6,1.6,1.6,3.2,0,4.8l-16.9,18.5v11.3
						c2.4,0.8,4,1.6,5.6,3.2c2.4,2.4,4,5.6,4,8.8c0,3.2-1.6,6.4-4,8.8C262.4,462.9,259.1,464.5,255.9,464.5z M366.1,434.7
						c-3.2,1.6-6.4,2.4-9.6,1.6c-3.2-0.8-5.6-3.2-7.2-5.6l0,0c-1.6-3.2-1.6-6.4-0.8-9.6c0.8-2.4,1.6-4,3.2-5.6l-5.6-9.7l-24.1-8
						c-1.6-0.8-2.4-2.4-2.4-4c0.8-1.6,2.4-2.4,4-2.4l21.7,7.2L350,376c0-1.6,2.4-3.2,4-2.4c1.6,0.8,3.2,2.4,2.4,4l-5.6,24.9l5.6,9.7
						c2.4-0.8,4.8-0.8,6.4,0c3.2,0.8,5.6,3.2,7.2,5.6c1.6,3.2,2.4,6.4,1.6,9.7C371.7,430.7,369.3,433.1,366.1,434.7z M447.3,354.3
						c-1.6,3.2-4.8,4.8-7.2,5.6c-3.2,0.8-6.4,0.8-9.6-1.6c-3.2-1.6-4.8-4.8-5.6-7.2c-0.8-2.4-0.8-4,0-6.4l-9.7-5.6l-24.9,4.8
						c-1.6,0-3.2-0.8-4-2.4c0-1.6,0.8-3.2,2.4-4l22.5-4.8l-7.2-21.7c-0.8-1.6,0-3.2,2.4-4c1.6-0.8,3.2,0,4,2.4l8,24.1l9.6,5.6
						c1.6-1.6,3.2-2.4,5.6-3.2c3.2-0.8,6.4-0.8,9.6,1.6c3.2,1.6,4.8,4.8,5.6,7.2C449.7,347.9,448.9,351.1,447.3,354.3z M477.1,243.3
						c0,3.2-1.6,6.4-4,8.8c-2.4,2.4-5.6,4-8.8,4s-6.4-1.6-8.8-4c-1.6-1.6-2.4-3.2-3.2-5.6h-11.3l-19.3,16.9c-1.6,1.6-3.2,0.8-4.8,0
						c-0.8-1.6-0.8-3.2,0-4.8l16.9-15.3l-16.9-15.3c-1.6-1.6-1.6-3.2,0-4.8c0.8-1.6,3.2-1.6,4.8,0l18.5,16.9h11.3
						c0.8-2.4,1.6-4,3.2-5.6c2.4-2.4,5.6-4,8.8-4c3.2,0,6.4,1.6,8.8,4C475.5,236.9,477.1,240.1,477.1,243.3z M447.3,133.2
						c1.6,3.2,1.6,6.4,0.8,9.7c-0.8,3.2-3.2,5.6-5.6,7.2l0,0c-3.2,1.6-6.4,1.6-9.6,0.8c-2.4-0.8-4-1.6-5.6-3.2l-9.6,5.6l-8,24.1
						c-0.8,1.6-2.4,2.4-4,2.4c-1.6-0.8-2.4-2.4-2.4-4l7.2-21.7l-21.7-4.8c-1.6,0-3.2-2.4-2.4-4c0-1.6,2.4-3.2,4-2.4l24.9,4.8
						l9.7-5.6c-0.8-2.4-0.8-4.8,0-6.4c0.8-3.2,3.2-5.6,5.6-7.2l0,0c3.2-1.6,6.4-1.6,9.6-0.8C442.5,128.3,445.7,130,447.3,133.2
						L447.3,133.2z M366.1,52c3.2,1.6,4.8,4.8,5.6,7.2c0.8,3.2,0.8,6.4-1.6,9.7c-1.6,3.2-4.8,4.8-7.2,5.6c-2.4,0.8-4,0.8-6.4,0
						l-5.6,9.6l4.8,24.9c0,1.6-0.8,3.2-2.4,4c-1.6,0-3.2-0.8-4-2.4l-4-21.7l-21.7,7.2c-1.6,0.8-3.2,0-4-2.4c-0.8-1.6,0-3.2,2.4-4
						l24.1-8l5.6-9.7c-1.6-1.6-2.4-3.2-3.2-5.6c-0.8-3.2-0.8-6.4,1.6-9.6c1.6-3.2,4.8-4.8,7.2-5.6C359.7,50.4,363.7,50.4,366.1,52z
						 M240.7,81.7c-1.6,1.6-3.2,1.6-4.8,0c-1.6-1.6-1.6-3.2,0-4.8l16.9-18.5V47.1c-2.4-0.8-4-1.6-5.6-3.2c-2.4-2.4-4-5.6-4-8.8
						c0-3.2,1.6-6.4,4-8.8c2.4-2.4,5.6-4,8.8-4c3.2,0,6.4,1.6,8.8,4c2.4,2.4,4,5.6,4,8.8c0,3.2-1.6,6.4-4,8.8
						c-1.6,1.6-3.2,2.4-5.6,3.2v11.3L276,77.7c0.8,1.6,0.8,3.2,0,4.8c-1.6,0.8-3.2,0.8-4.8,0l-15.3-17.7L240.7,81.7z M293.7,376.8
						L293.7,376.8c-6.4-11.3,2.4-22.5,9.7-32.2l0,0c2.4-3.2,4.8-6.4,6.4-8.8c3.2-6.4,5.6-13.7,6.4-21.7c0.8-6.4,0.8-13.7,0-19.3
						c-1.6-6.4-1.6-10.5,0-13.7c1.6-3.2,5.6-5.6,12.1-7.2c14.5-4,21.7,0,30.6,4.8c4,2.4,8.8,4.8,14.5,6.4c4,1.6,8,2.4,10.5,4
						c0.8,0.8,1.6,0.8,2.4,1.6c5.6-14.5,8-30.6,8-47.4c0-4.8,0-9.7-0.8-14.5l-1.6,0.8c-2.4,0.8-4.8,2.4-6.4,3.2
						c-6.4,4-12.1,7.2-22.5-3.2c-10.5-10.5-8-24.1-5.6-33.8c0.8-4,1.6-7.2,1.6-8.8c-3.2-11.3-17.7-12.1-31.4-12.9
						c-14.5-0.8-28.1-0.8-33.8-12.1c-5.6-10.5,2.4-21.7,9.7-31.4l0,0c2.4-3.2,4.8-6.4,6.4-8.8c0.8-1.6,0.8-2.4,1.6-4l0.8-1.6
						c-16.9-7.2-36.2-12.1-56.3-12.1c-16.1,0-32.2,3.2-46.6,8c0,2.4,0,4,0,6.4c0,3.2-0.8,6.4-0.8,10.5l0,0
						c-0.8,8.8,0.8,12.1,4.8,12.1c4,0,8.8-1.6,15.3-3.2l4-1.6c7.2-2.4,26.5-8,32.2-4c3.2,2.4,3.2,7.2-2.4,13.7
						c-3.2,4-6.4,7.2-8.8,9.6c-7.2,7.2-7.2,8-0.8,26.5c0.8,2.4,2.4,5.6,4,9.6c6.4,14.5,16.1,35.4,5.6,45c-2.4,3.2-4.8,4-6.4,4.8
						c-2.4,1.6-4,2.4-8,8c-12.9,16.9-20.1,16.1-29,15.3c-4-0.8-9.6-0.8-16.1,0.8c-2.4,0.8-4.8,2.4-6.4,3.2l0,0
						c-6.4,4-12.1,7.2-21.7-3.2c-10.5-10.5-8-24.1-5.6-33.8c0.8-4,1.6-7.2,1.6-8.8c-0.8-4-4-6.4-7.2-8.8c-5.6-3.2-13.7-4-19.3-4
						c-4.8,0-9.7,0-13.7-0.8c-3.2,0-5.6-0.8-8-1.6c-2.4,9.6-3.2,20.1-3.2,30.6c0,24.9,6.4,48.3,18.5,68.4
						c12.9-2.4,19.3,0.8,27.3,4.8c4,2.4,8.8,4.8,14.5,6.4c17.7,4.8,19.3,13.7,20.1,20.9c0.8,3.2,0.8,6.4,4,8.8
						c4,3.2,13.7,0,20.1-2.4l4-1.6c7.2-2.4,26.5-8,32.2-3.2c3.2,2.4,3.2,7.2-2.4,13.7c-3.2,4-6.4,7.2-8.8,9.7
						c-4.8,4.8-6.4,6.4-5.6,11.3c4.8,0.8,9.7,0.8,13.7,0.8C268.8,381.6,281.7,380,293.7,376.8z"/>
				</g>
			</g>
			<g id="Layer_1_00000163758110519445149470000013367594407607354783_">
			</g>
		</g>
	</g>
</g>
</svg>
