<?xml version="1.0" encoding="utf-8"?>
<!-- Generator: Adobe Illustrator 22.0.1, SVG Export Plug-In . SVG Version: 6.00 Build 0)  -->
<svg version="1.1" id="Layer_1" xmlns="http://www.w3.org/2000/svg" xmlns:xlink="http://www.w3.org/1999/xlink" x="0px" y="0px"
	 viewBox="0 0 512 512" style="enable-background:new 0 0 512 512;" xml:space="preserve">
<style type="text/css">
	.st0{fill:#2C2557;}
</style>
<g>
	<g>
		<g>
			<g id="Layer_1_00000183952724522712955060000013383403126417913248_">
			</g>
		</g>
	</g>
</g>
<g>
	<g>
		<g>
			<g id="_x31_54_x2C__Alert_x2C__Fire_x2C__Risk_x2C__Sign">
				<g>
					<path class="st0" d="M280.8,187.8c0-12.9-10.6-23.6-23.6-23.6c-12.9,0-23.6,10.6-23.6,23.6v95c0,12.9,10.6,23.6,23.6,23.6
						c12.9,0,23.6-10.6,23.6-23.6V187.8z M261.8,282.8c0,2.3-2.3,4.6-4.6,4.6c-2.3,0-4.6-2.3-4.6-4.6v-95c0-2.3,2.3-4.6,4.6-4.6
						c2.3,0,4.6,2.3,4.6,4.6V282.8z"/>
					<path class="st0" d="M257.2,316.3c-12.9,0-23.6,10.6-23.6,23.6c0,12.9,10.6,23.6,23.6,23.6c12.9,0,23.6-10.6,23.6-23.6
						C280.8,326.9,270.2,316.3,257.2,316.3z M257.2,345.2c-2.3,0-4.6-2.3-4.6-4.6c0-2.3,2.3-4.6,4.6-4.6c2.3,0,4.6,2.3,4.6,4.6
						C261.8,342.9,259.5,345.2,257.2,345.2z"/>
					<path class="st0" d="M481.5,390L282.3,44.9c-10.6-19-38.8-19-49.4,0L33,390c-10.6,19,3,42.6,25.1,42.6h399.1
						C478.5,432.6,492.1,409,481.5,390z M464.8,409c-0.8,1.5-3,4.6-8.4,4.6H58.1c-5.3,0-7.6-3-8.4-4.6c-0.8-1.5-2.3-5.3,0-9.9
						L248.9,53.2c2.3-4.6,6.8-4.6,8.4-4.6c1.5,0,6.1,0.8,8.4,4.6l199.2,345.9C467.8,403.7,465.5,407.5,464.8,409z"/>
					<path class="st0" d="M398.6,320.8c-2.3-4.6-8.4-6.1-12.9-3.8c-4.6,2.3-6.1,8.4-3.8,12.9l26.6,45.6H106l151.3-261.5l96.5,166.5
						c2.3,4.6,8.4,6.1,12.9,3.8c4.6-2.3,6.1-8.4,3.8-12.9L265.6,91.3c-1.5-3-4.6-4.6-8.4-4.6c-3.8,0-6.8,1.5-8.4,4.6L81.6,381.7
						c-1.5,3-1.5,6.8,0,9.9c1.5,3,4.6,4.6,8.4,4.6h335.3c3,0,6.8-1.5,8.4-4.6c1.5-3,1.5-6.8,0-9.9L398.6,320.8z"/>
					<path class="st0" d="M124.2,164.2c16,0,28.1-12.9,28.1-28.1c0-16-12.9-28.9-28.1-28.9c-16,0-28.9,12.9-28.9,28.9
						C95.3,151.3,108.2,164.2,124.2,164.2z M124.2,126.2c5.3,0,9.1,4.6,9.1,9.9c0,5.3-4.6,9.9-9.1,9.9c-5.3,0-9.9-4.6-9.9-9.9
						C115.1,130.8,118.9,126.2,124.2,126.2z"/>
					<path class="st0" d="M409.3,225.8c0,18.2,15.2,33.5,33.5,33.5c18.2,0,33.4-15.2,33.4-33.5c0-18.2-15.2-33.5-33.4-33.5
						C424.5,193.1,409.3,207.6,409.3,225.8z M456.4,225.8c0,7.6-6.1,14.4-14.4,14.4c-7.6,0-14.4-6.1-14.4-14.4
						c0-8.4,6.1-14.4,14.4-14.4C450.3,212.1,456.4,218.2,456.4,225.8z"/>
					<path class="st0" d="M428.3,145.2c5.3,0,9.9-4.6,9.9-9.9c0-5.3-4.6-9.9-9.9-9.9c-5.3,0-9.9,4.6-9.9,9.9
						C418.4,141.4,423,145.2,428.3,145.2z"/>
					<path class="st0" d="M352.3,69.2c5.3,0,9.9-4.6,9.9-9.9c0-5.3-4.6-9.1-9.9-9.1c-5.3,0-9.9,4.6-9.9,9.1
						C342.4,65.4,346.9,69.2,352.3,69.2z"/>
					<path class="st0" d="M76.3,79.1c5.3,0,9.9-4.6,9.9-9.9c0-5.3-4.6-9.9-9.9-9.9c-5.3,0-9.9,4.6-9.9,9.9
						C67.2,74.5,71.7,79.1,76.3,79.1z"/>
					<path class="st0" d="M58.1,221.3c5.3,0,9.1-4.6,9.1-9.9c0-5.3-4.6-9.9-9.1-9.9c-5.3,0-9.9,4.6-9.9,9.9
						C48.2,217.5,52.7,221.3,58.1,221.3z"/>
					<path class="st0" d="M190.3,449.3c-5.3,0-9.9,4.6-9.9,9.9c0,5.3,4.6,9.9,9.9,9.9c5.3,0,9.9-4.6,9.9-9.9
						C200.2,453.9,195.7,449.3,190.3,449.3z"/>
					<path class="st0" d="M342.4,440.2c-5.3,0-9.9,4.6-9.9,9.9c0,5.3,4.6,9.9,9.9,9.9c5.3,0,9.9-4.6,9.9-9.9
						C352.3,444,347.7,440.2,342.4,440.2z"/>
					<path class="st0" d="M423.7,88.2c12.9,0,23.6-10.6,23.6-23.6c0-12.9-10.6-23.6-23.6-23.6c-12.9,0-23.6,10.6-23.6,23.6
						C400.2,77.6,410.8,88.2,423.7,88.2z M423.7,60.1c2.3,0,4.6,2.3,4.6,4.6c0,2.3-2.3,4.6-4.6,4.6c-2.3,0-4.6-2.3-4.6-4.6
						C418.4,61.6,420.7,60.1,423.7,60.1z"/>
				</g>
			</g>
			<g id="Layer_1_00000022532119642403948160000010689495794776367285_">
			</g>
		</g>
	</g>
</g>
</svg>
