<?xml version="1.0" encoding="utf-8"?>
<!-- Generator: Adobe Illustrator 22.0.1, SVG Export Plug-In . SVG Version: 6.00 Build 0)  -->
<svg version="1.1" id="Layer_1" xmlns="http://www.w3.org/2000/svg" xmlns:xlink="http://www.w3.org/1999/xlink" x="0px" y="0px"
	 viewBox="0 0 512 512" style="enable-background:new 0 0 512 512;" xml:space="preserve">
<style type="text/css">
	.st0{fill:#2C2557;}
</style>
<g>
	<g>
		<g>
			<g id="Layer_1_00000183952724522712955060000013383403126417913248_">
			</g>
		</g>
	</g>
</g>
<g>
	<g>
		<g>
			<g id="_x36_94-Learning_x2C__Online_x2C__Study_x2C__Education_x2C__Monitor">
				<g>
					<path class="st0" d="M258.5,362.9c5.5,0,9.9,4.4,9.9,9.9c0,5.5-4.4,9.9-9.9,9.9c-5.5,0-9.9-4.4-9.9-9.9
						C248.6,367.3,253,362.9,258.5,362.9z"/>
					<path class="st0" d="M372.9,28.9c5.5,0,9.9,4.4,9.9,9.9c0,5.5-4.4,9.9-9.9,9.9c-5.5,0-9.9-4.4-9.9-9.9
						C363,33.3,367.4,28.9,372.9,28.9z"/>
					<path class="st0" d="M192.1,28.9c5.5,0,9.9,4.4,9.9,9.9c0,5.5-4.4,9.9-9.9,9.9c-5.5,0-9.9-4.4-9.9-9.9
						C182.2,33.3,186.7,28.9,192.1,28.9z"/>
					<path class="st0" d="M268.4,47.9c5.5,0,9.9,4.4,9.9,9.9c0,5.5-4.4,9.9-9.9,9.9c-5.5,0-9.9-4.4-9.9-9.9
						C258.5,52.4,262.9,47.9,268.4,47.9z"/>
					<path class="st0" d="M353.8,305.7c5.5,0,9.9,4.4,9.9,9.9c0,5.5-4.4,9.9-9.9,9.9s-9.9-4.4-9.9-9.9
						C343.9,310.1,348.3,305.7,353.8,305.7z"/>
					<path class="st0" d="M58.7,57.9c5.5,0,9.9,4.4,9.9,9.9c0,5.5-4.4,9.9-9.9,9.9s-9.9-4.4-9.9-9.9C48.8,62.3,53.2,57.9,58.7,57.9z
						"/>
					<path class="st0" d="M440,115.1H77.7c-5.3,0-9.9,4.6-9.9,9.9v219.6c0,5.3,4.6,9.9,9.9,9.9H440c5.3,0,9.9-4.6,9.9-9.9V125
						C449.1,119.6,444.6,115.1,440,115.1z M86.9,334.7v-9.9h238.7c5.3,0,9.9-4.6,9.9-9.9c0-5.3-4.6-9.9-9.9-9.9H86.9V134.1h343.2
						v171.6h-48c-5.3,0-9.9,4.6-9.9,9.9c0,5.3,4.6,9.9,9.9,9.9h48v9.9H86.9V334.7z"/>
					<path class="st0" d="M382.8,420.1c5.5,0,9.9,4.4,9.9,9.9c0,5.5-4.4,9.9-9.9,9.9c-5.5,0-9.9-4.4-9.9-9.9
						C372.9,424.5,377.3,420.1,382.8,420.1z"/>
					<path class="st0" d="M440,420.1h-29c-5.3,0-9.9,4.6-9.9,9.9c0,5.3,4.6,9.9,9.9,9.9h29c5.3,0,9.9-4.6,9.9-9.9
						C449.1,424.7,444.6,420.1,440,420.1z"/>
					<path class="st0" d="M134.9,420.1c5.5,0,9.9,4.4,9.9,9.9c0,5.5-4.4,9.9-9.9,9.9c-5.5,0-9.9-4.4-9.9-9.9
						C125,424.5,129.5,420.1,134.9,420.1z"/>
					<path class="st0" d="M106,420.1H77c-5.3,0-9.9,4.6-9.9,9.9c0,5.3,4.6,9.9,9.9,9.9h29c5.3,0,9.9-4.6,9.9-9.9
						C115.9,424.7,111.3,420.1,106,420.1z"/>
					<path class="st0" d="M110.5,67.8c13,0,23.6-10.7,23.6-23.6c0-13-10.7-24.4-23.6-24.4c-13,0-23.6,10.7-23.6,23.6
						C86.9,56.3,97.6,67.8,110.5,67.8z M110.5,38.8c2.3,0,4.6,2.3,4.6,4.6c0,2.3-2.3,4.6-4.6,4.6c-2.3,0-4.6-1.5-4.6-4.6
						C106,40.3,108.3,38.8,110.5,38.8z"/>
					<path class="st0" d="M430.1,76.9c16,0,29-13,29-29s-13-28.2-29-28.2c-16,0-29,13-29,29S414.1,76.9,430.1,76.9z M430.1,38.8
						c5.3,0,9.9,4.6,9.9,9.9c0,5.3-4.6,9.9-9.9,9.9c-5.3,0-9.9-4.6-9.9-9.9C420.9,43.4,424.7,38.8,430.1,38.8z"/>
					<path class="st0" d="M443.8,86.8H73.2c-19.1,0-34.3,15.3-34.3,34.3v256.2c0,19.1,15.3,34.3,34.3,34.3h135
						c-3.1,5.3-9.2,9.9-16.8,9.9c-16,0-29,13-29,29s13,29,29,29h133.5c16,0,29-13,29-29s-13-29-29-29c-6.9,0-13-3.8-16.8-9.9h135
						c19.1,0,34.3-15.3,34.3-34.3v-257C478.1,102.1,462.9,86.8,443.8,86.8z M325.6,439.2c5.3,0,9.9,4.6,9.9,9.9
						c0,5.3-4.6,9.9-9.9,9.9H192.1c-5.3,0-9.9-4.6-9.9-9.9c0-5.3,4.6-9.9,9.9-9.9c17.5,0,32.8-12.2,36.6-29h59.5
						C292.8,427,307.3,439.2,325.6,439.2z M459.1,376.6c0,8.4-6.9,15.3-15.3,15.3c-14.5,0-353.1,0-370.6,0
						c-8.4,0-15.2-6.9-15.2-15.3V120.4c0-8.4,6.9-15.3,15.2-15.3h370.6c8.4,0,15.3,6.9,15.3,15.3V376.6L459.1,376.6z"/>
					<path class="st0" d="M353.8,277.5V153.2c0-5.3-4.6-9.9-10.7-9.2l-84.6,9.2l-84.7-9.2c-5.3-0.8-10.7,3.8-10.7,9.2v124.3
						c0,4.6,3.8,9.1,8.4,9.1c90.8,9.9,86.2,9.9,86.9,9.9c0.8,0-3.8,0.8,86.9-9.9C350,285.9,353.8,282.1,353.8,277.5z M182.2,163.9
						l67.1,7.6V276l-67.1-7.6V163.9z M334.8,268.3l-67.1,7.6V171.5l67.1-7.6V268.3z"/>
					<path class="st0" d="M292,208.9l29-19.1c4.6-3.1,5.3-9.2,2.3-13c-3.1-4.6-9.2-5.3-13-2.3l-29,19.1c-4.6,3.1-5.3,9.2-2.3,13
						C282.1,210.4,288.2,211.9,292,208.9z"/>
					<path class="st0" d="M292,247l29-19.1c4.6-3.1,5.3-9.2,2.3-13c-3.1-3.8-9.2-5.3-13-2.3l-29,19.1c-4.6,3.1-5.3,9.2-2.3,13
						C282.1,248.5,288.2,250,292,247z"/>
					<path class="st0" d="M234.9,192.8l-29-19.1c-4.6-3.1-10.7-1.5-13,2.3c-3.1,4.6-1.5,10.7,2.3,13l29,19.1c4.6,3.1,9.9,1.5,13-2.3
						C241,202,239.4,195.9,234.9,192.8z"/>
					<path class="st0" d="M234.9,231l-29-19.1c-4.6-3.1-10.7-1.5-13,2.3c-3.1,4.6-1.5,10.7,2.3,13l29,19.1c4.6,3.1,9.9,1.5,13-2.3
						C241,240.1,239.4,234,234.9,231z"/>
				</g>
			</g>
			<g id="Layer_1_00000091715318784250650400000007340953679674874514_">
			</g>
		</g>
	</g>
</g>
</svg>
