<?xml version="1.0" encoding="utf-8"?>
<!-- Generator: Adobe Illustrator 22.0.1, SVG Export Plug-In . SVG Version: 6.00 Build 0)  -->
<svg version="1.1" id="Layer_1" xmlns="http://www.w3.org/2000/svg" xmlns:xlink="http://www.w3.org/1999/xlink" x="0px" y="0px"
	 viewBox="0 0 512 512" style="enable-background:new 0 0 512 512;" xml:space="preserve">
<style type="text/css">
	.st0{fill:#2C2557;}
</style>
<g>
	<g>
		<g>
			<g id="Layer_1_00000183952724522712955060000013383403126417913248_">
			</g>
		</g>
	</g>
</g>
<g>
	<g>
		<g>
			<g id="_x36_87-Page_x2C__School_x2C__Staff_x2C__Student_x2C__User">
				<g>
					<path class="st0" d="M188.6,241.1h117.9c5.5,0,10.2-4.7,10.2-10.2c0-25.1-13.4-47.1-34.6-59.7c3.1-5.5,4.7-11.8,4.7-18.9
						c0-22-17.3-39.3-39.3-39.3c-22,0-39.3,17.3-39.3,39.3c0,7.1,1.6,13.4,4.7,18.9c-21.2,11.8-34.6,34.6-34.6,59.7
						C178.4,236.4,183.1,241.1,188.6,241.1z M247.5,133.5c11,0,19.6,8.6,19.6,19.6c0,11-8.6,19.6-19.6,19.6
						c-11,0-19.6-8.6-19.6-19.6C227.9,142.1,236.5,133.5,247.5,133.5z M227.1,186.1c12.6,7.1,27.5,7.1,40.1,0
						c14.9,6.3,25.1,19.6,28.3,35.4h-96.6C202,205.8,212.2,193.2,227.1,186.1z"/>
					<path class="st0" d="M404.7,64.3h-29.9V34.5c0-5.5-4.7-10.2-10.2-10.2H50.3c-5.5,0-10.2,4.7-10.2,10.2V447
						c0,5.5,4.7,10.2,10.2,10.2h29.9v19.6c0,5.5,4.7,10.2,10.2,10.2h314.3c5.5,0,10.2-4.7,10.2-10.2V74.6
						C414.1,69.1,409.4,64.3,404.7,64.3z M60.5,437.6V44.7h294.7v19.6H90.4c-5.5,0-10.2,4.7-10.2,10.2v363.8H60.5V437.6z
						 M99.8,467.4V172.8h29.9c5.5,0,10.2-4.7,10.2-10.2c0-5.5-4.7-10.2-10.2-10.2H99.8V83.2h294.7v29.9H345
						c-5.5,0-10.2,4.7-10.2,10.2c0,5.5,4.7,10.2,10.2,10.2h49.5v333.9H99.8z"/>
					<path class="st0" d="M433.8,339.4c5.6,0,10.2,4.6,10.2,10.2c0,5.6-4.6,10.2-10.2,10.2c-5.6,0-10.2-4.6-10.2-10.2
						C423.6,343.9,428.1,339.4,433.8,339.4z"/>
					<path class="st0" d="M296.3,368.4c5.6,0,10.2,4.6,10.2,10.2c0,5.6-4.6,10.2-10.2,10.2c-5.6,0-10.2-4.6-10.2-10.2
						C286,373,290.6,368.4,296.3,368.4z"/>
					<path class="st0" d="M158.8,152.4c5.6,0,10.2,4.6,10.2,10.2c0,5.6-4.6,10.2-10.2,10.2c-5.6,0-10.2-4.6-10.2-10.2
						C148.5,156.9,153.1,152.4,158.8,152.4z"/>
					<path class="st0" d="M315.9,113.1c5.6,0,10.2,4.6,10.2,10.2c0,5.6-4.6,10.2-10.2,10.2c-5.6,0-10.2-4.6-10.2-10.2
						C305.7,117.6,310.3,113.1,315.9,113.1z"/>
					<path class="st0" d="M433.8,94.2c-5.5,0-10.2,4.7-10.2,10.2v216.1c0,5.5,4.7,10.2,10.2,10.2c5.5,0,10.2-4.7,10.2-10.2V103.6
						C444,98.1,439.3,94.2,433.8,94.2z"/>
					<path class="st0" d="M463.6,271c-5.5,0-10.2,4.7-10.2,10.2v147.7c0,5.5,4.7,10.2,10.2,10.2c5.5,0,10.2-4.7,10.2-10.2V280.4
						C473.1,274.9,468.3,271,463.6,271z"/>
					<path class="st0" d="M365.4,260.8H129.7c-5.5,0-10.2,4.7-10.2,10.2v39.3c0,5.5,4.7,10.2,10.2,10.2h235.7
						c5.5,0,10.2-4.7,10.2-10.2V271C374.8,265.5,370.1,260.8,365.4,260.8z M355.2,300.1H139.1v-19.6h216.1V300.1z"/>
					<path class="st0" d="M129.7,359h58.9c5.5,0,10.2-4.7,10.2-10.2c0-5.5-5.5-9.4-10.2-9.4h-58.9c-5.5,0-10.2,4.7-10.2,10.2
						C119.5,355.1,124.2,359,129.7,359z"/>
					<path class="st0" d="M129.7,388.9h137.5c5.5,0,10.2-4.7,10.2-10.2c0-5.5-4.7-10.2-10.2-10.2H129.7c-5.5,0-10.2,4.7-10.2,10.2
						C119.5,384.2,124.2,388.9,129.7,388.9z"/>
					<path class="st0" d="M365.4,398.3H129.7c-5.5,0-10.2,4.7-10.2,10.2c0,5.5,4.7,10.2,10.2,10.2h235.7c5.5,0,10.2-4.7,10.2-10.2
						C374.8,403,370.1,398.3,365.4,398.3z"/>
				</g>
			</g>
			<g id="Layer_1_00000001624729192058084150000001229139315869830815_">
			</g>
		</g>
	</g>
</g>
</svg>
