<?xml version="1.0" encoding="UTF-8"?>
<!DOCTYPE svg PUBLIC "-//W3C//DTD SVG 1.1//EN" "http://www.w3.org/Graphics/SVG/1.1/DTD/svg11.dtd">
<svg xmlns="http://www.w3.org/2000/svg" version="1.1" width="512px" height="512px" style="shape-rendering:geometricPrecision; text-rendering:geometricPrecision; image-rendering:optimizeQuality; fill-rule:evenodd; clip-rule:evenodd" xmlns:xlink="http://www.w3.org/1999/xlink">
<g><path style="opacity:0.996" fill="#203e8f" d="M 511.5,237.5 C 511.5,250.5 511.5,263.5 511.5,276.5C 501.664,366.39 457.997,434.223 380.5,480C 317.672,513.037 252.005,520.037 183.5,501C 104.183,475.349 49.0167,423.849 18,346.5C -11.8737,257.939 0.459633,175.939 55,100.5C 106.665,36.3371 173.998,3.33708 257,1.5C 352.914,4.87673 426.247,46.8767 477,127.5C 496.683,161.709 508.183,198.375 511.5,237.5 Z"/></g>
<g><path style="opacity:1" fill="#f5c718" d="M 256.5,40.5 C 259.068,46.205 261.068,52.205 262.5,58.5C 268.938,60.1502 275.605,61.1502 282.5,61.5C 277.139,64.849 272.139,68.6824 267.5,73C 270.373,79.0777 272.04,85.2443 272.5,91.5C 267.58,87.4592 262.413,83.7925 257,80.5C 251.402,83.7613 246.069,87.428 241,91.5C 240.517,87.4678 241.35,83.8012 243.5,80.5C 245.074,78.8984 245.741,76.8984 245.5,74.5C 245.67,73.1779 245.337,72.0113 244.5,71C 239.985,67.9701 235.651,64.8034 231.5,61.5C 237.833,60.8333 244.167,60.1667 250.5,59.5C 253.276,53.5007 255.276,47.1673 256.5,40.5 Z"/></g>
<g><path style="opacity:1" fill="#94894c" d="M 256.5,40.5 C 255.276,47.1673 253.276,53.5007 250.5,59.5C 251.724,52.8327 253.724,46.4993 256.5,40.5 Z"/></g>
<g><path style="opacity:1" fill="#a6973d" d="M 250.5,59.5 C 244.167,60.1667 237.833,60.8333 231.5,61.5C 230.624,61.6309 229.957,61.2975 229.5,60.5C 236.468,59.503 243.468,59.1697 250.5,59.5 Z"/></g>
<g><path style="opacity:1" fill="#ab9a3a" d="M 262.5,58.5 C 269.445,59.1332 276.445,59.7999 283.5,60.5C 283.376,61.1067 283.043,61.44 282.5,61.5C 275.605,61.1502 268.938,60.1502 262.5,58.5 Z"/></g>
<g><path style="opacity:1" fill="#f4c618" d="M 142.5,84.5 C 149.167,83.8333 155.833,83.1667 162.5,82.5C 163.975,75.9076 166.142,69.5743 169,63.5C 171.176,70.0274 173.342,76.5274 175.5,83C 182.167,83.3333 188.833,83.6667 195.5,84C 189.947,87.9364 184.613,92.103 179.5,96.5C 182.074,102.71 183.907,109.043 185,115.5C 179.411,111.622 173.911,107.622 168.5,103.5C 163.089,107.622 157.589,111.622 152,115.5C 153.392,109.313 155.225,103.146 157.5,97C 152.936,92.3743 147.936,88.2076 142.5,84.5 Z"/></g>
<g><path style="opacity:1" fill="#f0c41d" d="M 351.5,82.5 C 358.167,83.1667 364.833,83.8333 371.5,84.5C 367.657,87.5025 363.657,90.3359 359.5,93C 358.101,94.0616 357.101,95.395 356.5,97C 358.401,102.871 360.401,108.704 362.5,114.5C 362.167,114.833 361.833,115.167 361.5,115.5C 356.142,111.799 350.809,108.132 345.5,104.5C 339.616,107.543 334.116,111.21 329,115.5C 330.093,109.043 331.926,102.71 334.5,96.5C 329.002,91.8402 323.335,87.3402 317.5,83C 324.5,82.6667 331.5,82.3333 338.5,82C 340.544,76.0302 342.878,70.1969 345.5,64.5C 348.101,70.3043 350.101,76.3043 351.5,82.5 Z"/></g>
<g><path style="opacity:1" fill="#968a4c" d="M 245.5,74.5 C 245.741,76.8984 245.074,78.8984 243.5,80.5C 243.259,78.1016 243.926,76.1016 245.5,74.5 Z"/></g>
<g><path style="opacity:1" fill="#727655" d="M 162.5,82.5 C 155.833,83.1667 149.167,83.8333 142.5,84.5C 141.957,84.44 141.624,84.1067 141.5,83.5C 148.468,82.503 155.468,82.1697 162.5,82.5 Z"/></g>
<g><path style="opacity:1" fill="#717555" d="M 351.5,82.5 C 358.532,82.1697 365.532,82.503 372.5,83.5C 372.376,84.1067 372.043,84.44 371.5,84.5C 364.833,83.8333 358.167,83.1667 351.5,82.5 Z"/></g>
<g><path style="opacity:1" fill="#f2c51c" d="M 103.5,128.5 C 105.873,134.424 108.206,140.591 110.5,147C 117.5,147.333 124.5,147.667 131.5,148C 126.333,151.833 121.167,155.667 116,159.5C 115.333,161.5 115.333,163.5 116,165.5C 117.978,170.417 119.311,175.417 120,180.5C 114.671,176.506 109.338,172.506 104,168.5C 99.2968,172.039 94.4635,175.372 89.5,178.5C 88.9033,178.265 88.5699,177.765 88.5,177C 90.3503,172.286 91.6837,167.453 92.5,162.5C 92.67,161.178 92.3366,160.011 91.5,159C 86.9523,155.612 82.2856,152.445 77.5,149.5C 84.1667,148.833 90.8333,148.167 97.5,147.5C 97.9281,144.215 98.9281,141.215 100.5,138.5C 102.277,135.495 103.277,132.162 103.5,128.5 Z"/></g>
<g><path style="opacity:1" fill="#f2c51b" d="M 395.5,178.5 C 394.903,178.265 394.57,177.765 394.5,177C 396.35,172.286 397.684,167.453 398.5,162.5C 398.719,161.325 398.386,160.325 397.5,159.5C 393.094,155.754 388.427,152.42 383.5,149.5C 390.167,148.833 396.833,148.167 403.5,147.5C 405.943,142.5 407.61,137.166 408.5,131.5C 408.281,130.325 408.614,129.325 409.5,128.5C 412.273,134.591 414.273,140.924 415.5,147.5C 422.841,147.334 430.174,147.5 437.5,148C 431.665,152.34 425.998,156.84 420.5,161.5C 423.074,167.71 424.907,174.043 426,180.5C 420.64,176.307 415.14,172.307 409.5,168.5C 405.094,172.246 400.427,175.58 395.5,178.5 Z"/></g>
<g><path style="opacity:1" fill="#8b8351" d="M 103.5,128.5 C 103.277,132.162 102.277,135.495 100.5,138.5C 100.723,134.838 101.723,131.505 103.5,128.5 Z"/></g>
<g><path style="opacity:1" fill="#8b8352" d="M 408.5,131.5 C 407.61,137.166 405.943,142.5 403.5,147.5C 404.39,141.834 406.057,136.5 408.5,131.5 Z"/></g>
<g><path style="opacity:1" fill="#7a7c50" d="M 97.5,147.5 C 90.8333,148.167 84.1667,148.833 77.5,149.5C 76.9569,149.44 76.6236,149.107 76.5,148.5C 83.4684,147.503 90.4684,147.17 97.5,147.5 Z"/></g>
<g><path style="opacity:1" fill="#7a7c50" d="M 403.5,147.5 C 396.833,148.167 390.167,148.833 383.5,149.5C 382.957,149.44 382.624,149.107 382.5,148.5C 389.468,147.503 396.468,147.17 403.5,147.5 Z"/></g>
<g><path style="opacity:1" fill="#90874f" d="M 92.5,162.5 C 91.6837,167.453 90.3503,172.286 88.5,177C 88.5699,177.765 88.9033,178.265 89.5,178.5C 88.6324,180.625 87.6324,180.791 86.5,179C 88.2346,173.287 90.2346,167.787 92.5,162.5 Z"/></g>
<g><path style="opacity:1" fill="#988c4b" d="M 398.5,162.5 C 397.684,167.453 396.35,172.286 394.5,177C 394.57,177.765 394.903,178.265 395.5,178.5C 394.632,180.625 393.632,180.791 392.5,179C 394.235,173.287 396.235,167.787 398.5,162.5 Z"/></g>
<g><path style="opacity:1" fill="#f4c619" d="M 79.5,217.5 C 81.8333,223.5 84.1667,229.5 86.5,235.5C 93.1667,236.167 99.8333,236.833 106.5,237.5C 100.704,240.803 95.7043,244.97 91.5,250C 93.6961,255.588 95.6961,261.254 97.5,267C 97.1667,267.5 96.8333,268 96.5,268.5C 90.8838,264.885 85.5505,260.885 80.5,256.5C 74.86,260.307 69.36,264.307 64,268.5C 66.356,261.745 67.6893,254.745 68,247.5C 63.317,244.303 58.817,240.97 54.5,237.5C 60.8333,236.833 67.1667,236.167 73.5,235.5C 76.4729,229.915 78.4729,223.915 79.5,217.5 Z"/></g>
<g><path style="opacity:1" fill="#978b4b" d="M 79.5,217.5 C 80.3023,216.115 80.9689,216.282 81.5,218C 83.6828,223.712 85.3495,229.545 86.5,235.5C 84.1667,229.5 81.8333,223.5 79.5,217.5 Z"/></g>
<g><path style="opacity:1" fill="#f4c618" d="M 439.5,235.5 C 446.167,236.167 452.833,236.833 459.5,237.5C 453.728,240.775 448.728,244.942 444.5,250C 446.775,256.146 448.608,262.313 450,268.5C 444.411,264.622 438.911,260.622 433.5,256.5C 427.86,260.307 422.36,264.307 417,268.5C 418.097,262.032 419.931,255.699 422.5,249.5C 417.691,245.262 412.691,241.262 407.5,237.5C 414.395,237.15 421.062,236.15 427.5,234.5C 429.023,228.428 430.857,222.428 433,216.5C 435.858,222.574 438.025,228.908 439.5,235.5 Z"/></g>
<g><path style="opacity:1" fill="#898153" d="M 79.5,217.5 C 78.4729,223.915 76.4729,229.915 73.5,235.5C 74.928,229.216 76.928,223.216 79.5,217.5 Z"/></g>
<g><path style="opacity:1" fill="#8a854a" d="M 73.5,235.5 C 67.1667,236.167 60.8333,236.833 54.5,237.5C 53.7109,237.217 53.0442,236.717 52.5,236C 59.4921,235.5 66.4921,235.334 73.5,235.5 Z"/></g>
<g><path style="opacity:1" fill="#8b854a" d="M 86.5,235.5 C 93.5316,235.17 100.532,235.503 107.5,236.5C 107.376,237.107 107.043,237.44 106.5,237.5C 99.8333,236.833 93.1667,236.167 86.5,235.5 Z"/></g>
<g><path style="opacity:1" fill="#8d8649" d="M 427.5,234.5 C 421.062,236.15 414.395,237.15 407.5,237.5C 406.957,237.44 406.624,237.107 406.5,236.5C 413.555,235.8 420.555,235.133 427.5,234.5 Z"/></g>
<g><path style="opacity:1" fill="#8c8649" d="M 439.5,235.5 C 446.532,235.17 453.532,235.503 460.5,236.5C 460.376,237.107 460.043,237.44 459.5,237.5C 452.833,236.833 446.167,236.167 439.5,235.5 Z"/></g>
<g><path style="opacity:1" fill="#f2c51a" d="M 88.5,351.5 C 90.2766,348.495 91.2766,345.162 91.5,341.5C 92.2178,339.863 92.3845,338.197 92,336.5C 86.8333,332.667 81.6667,328.833 76.5,325C 83.4921,324.5 90.4921,324.334 97.5,324.5C 100.276,318.501 102.276,312.167 103.5,305.5C 103.56,304.957 103.893,304.624 104.5,304.5C 105.799,311.23 107.799,317.73 110.5,324C 117.5,324.333 124.5,324.667 131.5,325C 125.622,329.1 119.956,333.433 114.5,338C 116.697,343.591 118.697,349.258 120.5,355C 120.167,355.5 119.833,356 119.5,356.5C 114.58,352.459 109.413,348.793 104,345.5C 98.4023,348.761 93.069,352.428 88,356.5C 87.2204,354.613 87.3871,352.946 88.5,351.5 Z"/></g>
<g><path style="opacity:1" fill="#f3c51a" d="M 393.5,352.5 C 395.99,349.374 397.323,345.708 397.5,341.5C 398.218,339.863 398.384,338.197 398,336.5C 392.833,332.667 387.667,328.833 382.5,325C 389.492,324.5 396.492,324.334 403.5,324.5C 405.943,319.5 407.61,314.166 408.5,308.5C 408.238,307.022 408.571,305.689 409.5,304.5C 411.738,311.049 414.072,317.549 416.5,324C 423.5,324.333 430.5,324.667 437.5,325C 431.262,328.615 425.596,332.949 420.5,338C 422.8,343.732 424.8,349.566 426.5,355.5C 426.167,355.833 425.833,356.167 425.5,356.5C 420.58,352.459 415.413,348.793 410,345.5C 404.402,348.761 399.069,352.428 394,356.5C 393.51,355.207 393.343,353.873 393.5,352.5 Z"/></g>
<g><path style="opacity:1" fill="#988c4b" d="M 103.5,305.5 C 102.276,312.167 100.276,318.501 97.5,324.5C 98.7238,317.833 100.724,311.499 103.5,305.5 Z"/></g>
<g><path style="opacity:1" fill="#9f9047" d="M 408.5,308.5 C 407.61,314.166 405.943,319.5 403.5,324.5C 404.39,318.834 406.057,313.5 408.5,308.5 Z"/></g>
<g><path style="opacity:1" fill="#867f54" d="M 91.5,341.5 C 91.2766,345.162 90.2766,348.495 88.5,351.5C 88.7234,347.838 89.7234,344.505 91.5,341.5 Z"/></g>
<g><path style="opacity:1" fill="#8a8252" d="M 397.5,341.5 C 397.323,345.708 395.99,349.374 393.5,352.5C 394.462,348.605 395.796,344.939 397.5,341.5 Z"/></g>
<g><path style="opacity:1" fill="#f3c61a" d="M 174.5,387.5 C 180.938,389.15 187.605,390.15 194.5,390.5C 189.17,393.84 184.17,397.673 179.5,402C 181.965,408.386 183.798,414.886 185,421.5C 179.64,417.307 174.14,413.307 168.5,409.5C 162.86,413.307 157.36,417.307 152,421.5C 153.091,415.048 154.924,408.715 157.5,402.5C 152.432,397.783 147.099,393.283 141.5,389C 148.492,388.5 155.492,388.334 162.5,388.5C 164.094,382.052 166.094,375.718 168.5,369.5C 171.101,375.304 173.101,381.304 174.5,387.5 Z"/></g>
<g><path style="opacity:1" fill="#f2c51b" d="M 319.5,390.5 C 325.833,389.833 332.167,389.167 338.5,388.5C 340.756,382.232 342.923,375.899 345,369.5C 347.858,375.574 350.025,381.908 351.5,388.5C 358.508,388.334 365.508,388.5 372.5,389C 366.857,392.979 361.524,397.312 356.5,402C 358.98,408.424 360.813,414.924 362,421.5C 356.411,417.622 350.911,413.622 345.5,409.5C 339.86,413.307 334.36,417.307 329,421.5C 330.097,415.032 331.931,408.699 334.5,402.5C 329.691,398.262 324.691,394.262 319.5,390.5 Z"/></g>
<g><path style="opacity:1" fill="#a29244" d="M 174.5,387.5 C 181.754,388.299 189.088,388.799 196.5,389C 195.956,389.717 195.289,390.217 194.5,390.5C 187.605,390.15 180.938,389.15 174.5,387.5 Z"/></g>
<g><path style="opacity:1" fill="#a29343" d="M 338.5,388.5 C 332.167,389.167 325.833,389.833 319.5,390.5C 318.711,390.217 318.044,389.717 317.5,389C 324.492,388.5 331.492,388.334 338.5,388.5 Z"/></g>
<g><path style="opacity:1" fill="#f5c718" d="M 256.5,393.5 C 258.908,399.546 261.241,405.712 263.5,412C 270.5,412.333 277.5,412.667 284.5,413C 278.262,416.615 272.596,420.949 267.5,426C 269.401,431.871 271.401,437.704 273.5,443.5C 273.167,443.833 272.833,444.167 272.5,444.5C 267.228,440.951 262.062,437.284 257,433.5C 252.068,436.714 247.234,440.047 242.5,443.5C 241.903,443.265 241.57,442.765 241.5,442C 243.35,437.286 244.684,432.453 245.5,427.5C 245.67,426.178 245.337,425.011 244.5,424C 239.5,420.333 234.5,416.667 229.5,413C 236.492,412.5 243.492,412.334 250.5,412.5C 253.276,406.501 255.276,400.167 256.5,393.5 Z"/></g>
<g><path style="opacity:1" fill="#91874e" d="M 256.5,393.5 C 255.276,400.167 253.276,406.501 250.5,412.5C 251.724,405.833 253.724,399.499 256.5,393.5 Z"/></g>
<g><path style="opacity:1" fill="#9c8e49" d="M 245.5,427.5 C 244.684,432.453 243.35,437.286 241.5,442C 241.57,442.765 241.903,443.265 242.5,443.5C 241.632,445.625 240.632,445.791 239.5,444C 241.235,438.287 243.235,432.787 245.5,427.5 Z"/></g>
</svg>
