<svg xmlns="http://www.w3.org/2000/svg" viewBox="0 0 514.56 514.56"><defs><style>.cls-1{fill:#2c2557;}.cls-2{fill:#fff;}</style></defs><title>normativa alimentare</title><g id="Layer_2" data-name="Layer 2"><g id="Layer_3" data-name="Layer 3"><circle class="cls-1" cx="257.28" cy="257.28" r="257.28"/><path d="M2.56,284.16V233a82.53,82.53,0,0,0,2.37-8.46Q32.41,62.82,188.52,12.64C202.93,8,218.13,5.86,233,2.56h51.2c2.37.76,4.7,1.91,7.13,2.24C394.74,18.58,478.52,91.59,505.72,192.1c3.64,13.43,5.93,27.23,8.84,40.86v51.2c-.77,2.38-1.93,4.7-2.26,7.13C498.42,394.82,425.4,478.6,325,505.72c-13.43,3.62-27.21,5.93-40.82,8.84H233c-2.37-.77-4.68-1.93-7.11-2.25C119.63,498.3,34.53,421.74,9.66,317.62,7,306.54,4.91,295.32,2.56,284.16ZM258.68,35.56a223,223,0,1,0,222.86,222.8A222.55,222.55,0,0,0,258.68,35.56Z"/><path class="cls-2" d="M300.34,184.88l44.26-48c.67,8.36.78,8.48-18.9,27.66-7.68,7.48-16,14.3-24,21.42l3.13,4.69c2.85-1.33,6.31-2,8.45-4.09,11.22-10.78,22.07-21.95,33.14-32.89a68.73,68.73,0,0,1,6.71-5.22l2,2.31c-1.94,2.13-3.79,4.35-5.82,6.39-10.33,10.35-20.87,20.48-30.92,31.09-2.4,2.53-3.21,6.58-4.75,9.93,3.24-1.45,7.23-2.14,9.58-4.47,11.25-11.21,22-22.88,33-34.33,1.25-1.3,2.81-2.29,6.18-2.47-.7,2.29-.81,5-2.18,6.8-9.78,12.5-19.9,24.74-29.75,37.18-5.33,6.73-12.16,9.14-20.61,10-13.42,1.32-24.33,5.29-31.77,19.6C272,242.36,259.51,251,249.61,260.85c-2.68,2.66-6.17,4.5-8,5.78,3,5.84,4,9.83,6.56,12.42,3,3.13,7,6.45,11.08,7.24,6.92,1.35,12.1,4.2,14.31,10.75,2.17,6.4,1.05,12.2-4.41,17.25-8.87,8.19-17.69,16.53-25.58,25.64-6.05,7-13.38,7.59-20.64,5.37-6.4-2-9.61-7.68-8.8-15.11.19-1.79-1.5-5.13-2.93-5.52-11.07-3-13-14.72-20.62-20.86-4.55-3.68-9.73-6.58-14.61-9.85-1-.67-2.65-1.44-2.7-2.24-.64-10.05-6.86-12.26-15.77-13.77-10.91-1.86-14.57-17.09-6.75-25.19q14.53-15.07,29.56-29.66c7.86-7.63,22.86-3.13,24.82,7.85,1.42,7.93,3.43,13.53,12.58,15.13,2.63.47,4.43,5.74,8.65,11.67,11.05-12,21.1-23.38,31.65-34.23,3.14-3.24,7.75-5,11.58-7.65,2.29-1.56,5.28-3,6.38-5.25,3.15-6.48,7.65-13.32,7.75-20.07.24-15.88,7.82-25.92,20.32-34.17,9-5.93,17.11-13.16,25.69-19.73,2.31-1.78,4.86-3.26,7.29-4.88l2.08,2.36a56.61,56.61,0,0,1-4.63,5.67c-12,11.34-24.21,22.45-36,34-1.87,1.84-1.83,5.61-2.67,8.49Zm-95,121.33,3.11-1.56c-.26-2.57.47-6.07-.94-7.55-9.34-9.81-19.06-19.26-28.89-28.58-1.15-1.1-3.71-.71-5.62-1,.09,1.92-.63,4.59.37,5.65C183.87,284.32,194.64,295.23,205.34,306.21Z"/><path class="cls-2" d="M255.17,392.56c-37.17,0-74.35.11-111.52-.12-3.64,0-10.27-1.79-10.37-3.14-.35-4.67.14-10.81,3-13.94,3.15-3.45,9.26-5.86,14.09-5.88q105.33-.53,210.65.14c5,0,12,3.67,14.66,7.82,6.11,9.39,2.12,15.11-9,15.11Z"/></g></g></svg>