<svg xmlns="http://www.w3.org/2000/svg" viewBox="0 0 514.56 514.56"><defs><style>.cls-1{fill:#2c2557;}.cls-2{fill:#fff;}</style></defs><title>punto interrogativo</title><g id="Layer_2" data-name="Layer 2"><g id="Layer_3" data-name="Layer 3"><circle class="cls-1" cx="257.28" cy="257.28" r="257.28"/><path d="M2.56,284.16V233a82.53,82.53,0,0,0,2.37-8.46Q32.41,62.82,188.52,12.64C202.93,8,218.13,5.86,233,2.56h51.2c2.37.76,4.7,1.91,7.13,2.24C394.74,18.58,478.52,91.59,505.72,192.1c3.64,13.43,5.93,27.23,8.84,40.86v51.2c-.77,2.38-1.93,4.7-2.26,7.13C498.42,394.82,425.4,478.6,325,505.72c-13.43,3.62-27.21,5.93-40.82,8.84H233c-2.37-.77-4.68-1.93-7.11-2.25C119.63,498.3,34.53,421.74,9.66,317.62,7,306.54,4.91,295.32,2.56,284.16ZM258.68,35.56a223,223,0,1,0,222.86,222.8A222.55,222.55,0,0,0,258.68,35.56Z"/><path class="cls-2" d="M202.44,189.28l-53.51-6.52c3.06-11.48,4.36-22.49,8.84-32,16.08-34.26,44-53.5,81.1-58.79,43.69-6.23,84.28-.29,116.5,33.62,29.11,30.64,30.77,72.12,3.2,104a292.12,292.12,0,0,1-36.82,35.33c-20.14,16.31-36.24,34-31.57,63.43H235c-1.79-26.33-.65-51.65,18.16-72.07,11.2-12.17,24.15-22.74,36.32-34,.94-.87,2-1.63,3-2.45,28.34-23.72,33.77-47,15.58-67-20-22-62-23.07-83-.45C215.84,162.22,210.52,175.73,202.44,189.28Z"/><path class="cls-2" d="M235.65,355.88H290v54.67H235.65Z"/></g></g></svg>